<svg width="356" height="35" viewBox="0 0 356 35" fill="none" xmlns="http://www.w3.org/2000/svg">
<g clip-path="url(#clip0_1977_217)">
<path fill-rule="evenodd" clip-rule="evenodd" d="M354.763 25.6219C354.319 27.8079 353.662 29.5269 352.79 30.7779C351.919 32.0309 350.913 32.9329 349.772 33.4879C348.632 34.0419 347.301 34.3189 345.78 34.3189C342.611 34.3189 340.195 33.0529 338.532 30.5169C336.868 27.9819 336.036 23.7049 336.036 17.6839C336.036 13.5649 336.448 10.2449 337.272 7.72589C338.096 5.20689 339.197 3.46589 340.575 2.49889C341.954 1.53289 343.688 1.04789 345.78 1.04789C348.948 1.04789 351.348 2.30089 352.981 4.80389C354.612 7.30589 355.428 11.5999 355.428 17.6839C355.428 20.7899 355.206 23.4349 354.763 25.6219ZM345.78 6.03989C342.928 6.03989 341.502 9.92089 341.502 17.6839C341.502 25.4479 342.928 29.3289 345.78 29.3289C348.568 29.3289 349.962 25.4479 349.962 17.6839C349.962 9.92089 348.568 6.03989 345.78 6.03989ZM327.243 33.8439H318.926C319.527 32.7669 319.717 31.6569 319.496 30.5169L317.072 21.0589C316.248 21.5339 315.361 21.9309 314.41 22.2469V30.0409C314.41 31.4999 314.886 32.7669 315.836 33.8439H307.518C308.469 32.7669 308.944 31.4999 308.944 30.0409V5.32589C308.944 3.86889 308.469 2.60189 307.518 1.52389H317.167C322.934 1.52389 325.817 4.12189 325.817 9.31889C325.817 12.4249 324.454 15.2609 321.73 17.8259L324.867 30.1369C325.437 31.7219 326.229 32.9579 327.243 33.8439ZM317.167 6.51389H314.41V16.8759C316.248 16.0839 317.705 15.0549 318.783 13.7869C319.86 12.5199 320.399 11.1089 320.399 9.55589C320.399 7.52989 319.322 6.51389 317.167 6.51389ZM283.373 30.0409V5.32589C283.373 3.86889 282.898 2.60189 281.947 1.52389H297.537V7.46489C296.808 6.83089 295.541 6.51389 293.735 6.51389H288.839V14.9269H291.834C293.64 14.9269 294.907 14.6119 295.636 13.9769V20.8679C294.907 20.2339 293.64 19.9169 291.834 19.9169H288.839V28.8529H293.735C295.541 28.8529 296.808 28.5369 297.537 27.9019V33.8439H281.947C282.898 32.7669 283.373 31.4999 283.373 30.0409ZM271.966 33.8439H263.648C264.599 32.7669 265.074 31.4999 265.074 30.0409V19.9169H258.753V30.0409C258.753 31.4999 259.229 32.7669 260.179 33.8439H251.861C252.812 32.7669 253.287 31.4999 253.287 30.0409V5.32589C253.287 3.86889 252.812 2.60189 251.861 1.52389H260.179C259.229 2.60189 258.753 3.86889 258.753 5.32589V14.9269H265.074V5.32589C265.074 3.86889 264.599 2.60189 263.648 1.52389H271.966C271.016 2.60189 270.54 3.86889 270.54 5.32589V30.0409C270.54 31.4999 271.016 32.7669 271.966 33.8439ZM219.114 30.0889L218.828 28.4729H211.936L211.651 30.0889C211.397 31.5159 211.651 32.7669 212.412 33.8439H204.094C205.14 32.8299 205.821 31.6269 206.138 30.2319L210.606 5.13589C210.732 3.70989 210.463 2.50689 209.798 1.52389H220.967C220.302 2.50689 220.032 3.70989 220.159 5.13589L224.627 30.2319C224.943 31.6269 225.625 32.8299 226.67 33.8439H218.353C219.114 32.7669 219.367 31.5159 219.114 30.0889ZM215.406 8.08389L212.792 23.4829H217.973L215.406 8.08389ZM164.739 30.0409V5.32589C164.739 3.86889 164.265 2.60189 163.314 1.52389H178.904V7.46489C178.174 6.83089 176.907 6.51389 175.101 6.51389H170.205V14.9269H173.2C175.006 14.9269 176.273 14.6119 177.002 13.9769V20.8679C176.273 20.2339 175.006 19.9169 173.2 19.9169H170.205V28.8529H175.101C176.907 28.8529 178.174 28.5369 178.904 27.9019V33.8439H163.314C164.265 32.7669 164.739 31.4999 164.739 30.0409ZM151.289 31.6339C149.926 33.1079 147.819 33.8439 144.967 33.8439H135.033C135.984 32.7669 136.459 31.4999 136.459 30.0409V5.32589C136.459 3.86889 135.984 2.60189 135.033 1.52389H144.73C150.464 1.52389 153.332 4.10789 153.332 9.27089C153.332 12.2179 152.049 14.7849 149.482 16.9719C152.049 19.8869 153.332 22.8179 153.332 25.7649C153.332 28.2049 152.651 30.1609 151.289 31.6339ZM144.73 6.51389H141.926V15.5929C143.922 14.9269 145.419 14.1279 146.417 13.1919C147.415 12.2589 147.914 11.0299 147.914 9.50889C147.914 7.51289 146.852 6.51389 144.73 6.51389ZM145.063 19.5849C143.985 20.0929 142.939 20.5049 141.926 20.8209V28.8529H144.73C145.87 28.8529 146.686 28.5209 147.178 27.8559C147.668 27.1899 147.914 26.3669 147.914 25.3829C147.914 23.8319 146.963 21.8979 145.063 19.5849ZM101.383 15.5449C102.459 16.4009 103.315 17.0979 103.949 17.6369C104.583 18.1749 105.296 18.8879 106.088 19.7749C106.88 20.6639 107.466 21.6049 107.846 22.6039C108.227 23.6009 108.417 24.6559 108.417 25.7649C108.417 28.4889 107.633 30.5969 106.064 32.0859C104.496 33.5749 102.412 34.3189 99.8141 34.3189C97.5011 34.3189 95.5681 33.6299 94.0151 32.2529C92.4631 30.8739 91.6861 28.9959 91.6861 26.6199V24.1009H98.3411C97.6751 24.8919 97.3431 25.7649 97.3431 26.7149C97.3431 27.4439 97.5641 28.0609 98.0081 28.5679C98.4511 29.0749 99.0541 29.3289 99.8141 29.3289C100.701 29.3289 101.446 29.0269 102.048 28.4259C102.65 27.8239 102.951 26.8729 102.951 25.5739C102.951 25.1619 102.895 24.7889 102.785 24.4569C102.673 24.1239 102.555 23.8319 102.428 23.5779C102.301 23.3239 102.04 22.9999 101.644 22.6039C101.248 22.2079 100.915 21.8899 100.646 21.6529C100.376 21.4139 99.8691 20.9959 99.1251 20.3929C98.3801 19.7909 97.7701 19.2849 97.2951 18.8719C96.2801 17.9859 95.5521 17.3359 95.1091 16.9239C94.6641 16.5119 94.1021 15.8779 93.4221 15.0219C92.7401 14.1659 92.2571 13.2959 91.9721 12.4079C91.6861 11.5219 91.5441 10.5229 91.5441 9.41389C91.5441 6.65689 92.3121 4.54189 93.8491 3.06789C95.3861 1.59589 97.4211 0.858887 99.9571 0.858887C105.09 0.858887 107.846 3.44089 108.227 8.60489C108.29 9.68389 108.322 10.5709 108.322 11.2679H101.668C102.364 10.4769 102.713 9.58889 102.713 8.60489C102.713 7.84489 102.476 7.19589 102.001 6.65689C101.525 6.11889 100.86 5.84889 100.004 5.84889C99.1491 5.84889 98.4361 6.15089 97.8661 6.75189C97.2951 7.35389 97.0101 8.30489 97.0101 9.60389C97.0101 10.6189 97.3661 11.5689 98.0791 12.4549C98.7921 13.3439 99.8931 14.3729 101.383 15.5449ZM76.4771 10.0789L77.6181 6.98889H75.7161V1.52389H81.1831V5.75389L79.3771 10.0789H76.4771ZM62.4081 6.51389H60.8881V33.8439H55.4211V6.51389H53.8531C52.3951 6.51389 51.1281 6.98889 50.0511 7.93989V1.52389H66.2111V7.93989C65.1011 6.98889 63.8341 6.51389 62.4081 6.51389ZM26.3811 30.0409V5.32589C26.3811 3.86889 25.9061 2.60189 24.9551 1.52389H40.5451V7.46489C39.8151 6.83089 38.5481 6.51389 36.7421 6.51389H31.8471V14.9269H34.8411C36.6471 14.9269 37.9141 14.6119 38.6441 13.9769V20.8679C37.9141 20.2339 36.6471 19.9169 34.8411 19.9169H31.8471V28.8529H36.7421C38.5481 28.8529 39.8151 28.5369 40.5451 27.9019V33.8439H24.9551C25.9061 32.7669 26.3811 31.4999 26.3811 30.0409ZM1.76006 30.0409V5.32589C1.76006 3.52089 1.44306 2.25289 0.810059 1.52389H8.17706C7.54306 2.25289 7.22706 3.52089 7.22706 5.32589V28.8529H12.1221C13.9281 28.8529 15.1951 28.5369 15.9241 27.9019V33.8439H0.810059C1.44306 33.1159 1.76006 31.8479 1.76006 30.0409Z" fill="white"/>
</g>
<defs>
<clipPath id="clip0_1977_217">
<rect width="356" height="35" fill="white"/>
</clipPath>
</defs>
</svg>
