<svg width="787" height="70" viewBox="0 0 787 70" fill="none" xmlns="http://www.w3.org/2000/svg">
<path fill-rule="evenodd" clip-rule="evenodd" d="M771.054 62.316V57.954H781.265V20.552H786.202V62.316H771.054ZM738.831 58.747H702.11C701.028 58.747 700.69 58.021 699.404 55.245H714.553C714.215 54.915 713.877 54.387 713.606 53.659C712.997 51.941 711.983 49.496 711.78 48.505C711.645 47.91 712.118 47.249 712.93 47.712C714.553 48.638 716.784 49.695 717.799 51.413C718.746 52.933 718.408 54.452 717.596 55.245H724.697C725.779 52.536 726.929 49.232 727.402 47.052L730.918 48.835C732.203 49.43 732.136 49.892 731.662 50.553C730.918 51.413 729.295 53.461 727.605 55.245H736.734C738.019 55.245 738.695 54.519 739.913 53.197C741.198 54.452 742.483 55.378 742.483 56.501C742.483 58.087 740.995 58.747 738.831 58.747ZM730.377 48.042V46.39H712.321C711.713 48.307 709.549 48.703 707.317 48.307V33.636L711.104 34.298C712.186 34.495 712.524 34.826 712.524 35.288H727.605C728.89 35.288 729.566 34.826 730.377 33.9L734.435 34.959C737.275 35.685 735.585 37.205 735.585 38.659V44.672C735.585 47.712 733.015 48.638 730.377 48.042ZM730.377 38.527H712.524V43.086H730.377V38.527ZM738.493 31.853H705.085C703.935 31.853 703.597 31.192 702.38 28.482H736.396C737.478 28.482 738.29 27.887 739.304 26.632C740.522 27.755 741.806 28.746 741.806 29.671C741.806 31.192 740.589 31.853 738.493 31.853ZM737.816 23.13C737.816 25.773 735.72 26.632 732.947 26.301V24.451H710.563C710.225 26.632 708.264 27.358 705.762 27.094V4.759L709.278 5.42C710.428 5.617 710.631 5.882 710.631 6.477V6.542H714.959V0.199L718.408 0.925C719.49 1.124 719.693 1.521 719.693 1.983V6.542H723.885V0.397L727.267 1.124C728.281 1.322 728.619 1.521 728.619 2.181V6.542H730.107C731.392 6.542 732.001 6.212 732.947 5.155L736.599 6.212C739.439 7.005 737.816 7.996 737.816 9.583V23.13ZM714.959 9.516H710.631V14.076H714.959V9.516ZM714.959 16.984H710.631V21.477H714.959V16.984ZM723.885 9.516H719.693V14.076H723.885V9.516ZM723.885 16.984H719.693V21.477H723.885V16.984ZM732.947 9.516H728.619V14.076H732.947V9.516ZM732.947 16.984H728.619V21.477H732.947V16.984ZM696.023 27.094C698.255 28.283 700.013 29.275 701.974 31.257C704.95 34.298 701.569 39.452 698.931 35.223C697.714 33.239 696.767 31.456 695.956 30.002V56.897C695.956 60.003 693.656 61.193 690.816 60.599V33.372C688.382 35.884 685.609 38.394 682.43 40.575C681.686 41.037 681.01 40.244 681.551 39.584C686.42 34.231 688.99 30.663 691.83 26.301C694.671 21.94 696.226 19.231 697.308 16.852H684.73C683.445 16.852 683.445 16.19 682.16 13.415H696.159C697.646 13.415 698.39 13.085 699.675 11.829L702.177 13.944C703.53 15.133 703.394 15.728 702.651 17.05C701.636 18.834 699.81 22.072 696.023 27.094ZM692.439 9.715L689.058 1.785C688.72 1.058 689.125 0.397 690.072 0.86C692.169 1.85 695.82 4.362 696.767 6.873C698.39 11.234 694.333 14.076 692.439 9.715ZM655.347 35.024C652.575 33.967 649.193 32.579 644.865 29.87C640.943 27.425 636.615 24.252 633.639 20.75C630.258 23.988 626.471 27.161 621.737 29.936C620.925 30.399 620.046 30.927 619.167 31.389H639.523C640.672 31.389 641.281 30.927 642.431 29.605C643.851 30.927 644.933 31.588 644.933 32.579C644.933 34.099 643.58 34.826 641.416 34.826H621.196C620.249 34.826 619.843 34.099 618.829 31.588C614.298 34.099 609.294 36.346 604.357 37.601C603.478 37.799 602.937 36.676 603.816 36.28C609.496 33.504 615.177 29.87 618.964 26.962C624.104 22.997 627.958 19.363 631.543 14.407L632.76 15.332C636.074 10.64 638.846 5.485 640.875 0.265L644.527 2.247C645.609 2.842 645.812 3.106 645.136 4.164C644.459 5.221 643.58 6.477 642.566 7.798H657.038C658.12 7.798 658.728 7.27 659.946 6.014C661.298 7.335 662.38 8.327 662.38 9.12C662.38 10.441 661.095 11.234 658.864 11.234H648.179C650.275 12.622 651.898 14.01 652.575 15.133C654.806 18.834 651.154 22.931 648.179 17.975C647.164 16.19 645.947 13.283 644.797 11.234H639.793C638.102 13.151 636.276 15.067 634.383 16.653C635.735 17.777 636.074 18.174 635.397 19.032C637.832 21.345 641.822 23.79 646.623 26.169C651.695 28.746 656.97 30.332 663.192 31.786C663.936 31.985 663.936 32.513 663.462 32.778C658.323 35.817 658.187 36.081 655.347 35.024ZM630.461 11.433H621.669C623.225 12.754 624.509 14.01 624.915 14.935C626.674 18.768 622.007 22.402 620.114 17.05C619.505 15.464 618.761 13.151 618.085 11.433H614.568C611.322 15.464 607.603 19.428 604.627 21.28C603.816 21.808 603.14 21.081 603.613 20.42C607.873 15.001 612.54 7.467 615.38 0.331L618.761 2.181C620.114 2.908 620.317 3.239 619.708 4.23C618.964 5.353 618.153 6.674 617.138 7.996H628.499C629.717 7.996 630.325 7.467 631.475 6.212C632.963 7.534 633.91 8.459 633.91 9.319C633.91 10.64 632.76 11.433 630.461 11.433ZM581.467 15.993H573.554V21.081C573.554 23.856 570.646 24.451 568.144 24.187V22.534H557.053V26.169H572.607C573.757 26.169 574.366 25.64 575.448 24.384C576.868 25.707 577.882 26.433 577.882 27.358C577.882 28.746 576.597 29.407 574.501 29.407H557.053V32.843H578.694C579.844 32.843 580.52 32.249 581.669 30.993C583.157 32.381 584.239 33.042 584.239 34.034C584.239 35.553 582.887 36.081 580.723 36.081H528.177C527.027 36.081 526.689 35.487 525.539 32.843H551.508V29.407H534.263C533.181 29.407 532.843 28.746 531.693 26.169H551.508V22.534H537.171C535.886 22.534 535.751 21.609 534.737 19.296H551.508V15.993H527.433C526.283 15.993 526.013 15.332 524.863 12.754H551.508V9.451H537.442C536.292 9.451 535.954 8.327 535.007 6.212H551.508V0.925L555.836 1.785C556.648 1.917 557.053 2.314 557.053 2.842V6.212H565.236C566.386 6.212 567.197 5.816 568.144 4.759L572.607 6.08C575.177 6.873 573.554 8.195 573.554 9.648V12.754H579.37C580.587 12.754 581.196 12.159 582.413 10.904C583.833 12.226 584.916 13.019 584.916 13.944C584.916 15.332 583.563 15.993 581.467 15.993ZM568.144 9.451H557.053V12.754H568.144V9.451ZM568.144 15.993H557.053V19.296H568.144V15.993ZM503.596 53.065C503.596 55.907 500.958 56.964 498.186 56.435V49.959H485.878V54.716C485.878 57.822 483.173 58.946 480.468 58.285V9.384L484.796 10.244C485.472 10.376 485.878 10.772 485.878 11.169V11.234H495.548C496.698 11.234 497.307 10.772 498.186 9.648C498.253 9.648 498.253 9.648 498.321 9.715L502.784 11.234C505.422 12.159 503.596 13.547 503.596 14.869V53.065ZM498.186 14.737H485.878V46.39H498.186V14.737ZM472.961 29.671C474.178 29.671 474.922 29.076 476.139 27.689C477.56 29.076 478.845 29.87 478.845 30.993C478.845 32.513 477.289 33.239 475.058 33.239H466.063C465.793 34.959 465.455 36.61 465.049 38.196C470.594 42.69 474.043 45.861 475.937 48.638C478.845 52.998 474.855 57.162 472.014 52.536C469.377 48.241 466.942 44.011 464.44 40.244C463.493 43.086 462.344 45.729 460.856 48.174C457.542 53.726 452.267 58.483 447.669 60.268C446.857 60.599 446.046 59.871 446.79 59.144C450.239 55.84 454.026 52.14 457.339 45.068C459.03 41.434 460.18 37.667 460.721 33.239H449.359C448.142 33.239 447.804 32.447 446.384 29.671H461.059C461.262 26.368 461.397 20.552 461.397 16.521H455.919C453.688 20.353 451.321 23.724 449.224 25.508C448.616 26.037 447.601 25.575 448.142 24.649C451.659 18.371 455.649 8.393 457.542 0.86L460.653 2.247C462.276 2.974 462.547 3.172 461.938 4.56C460.856 7.137 459.436 10.111 457.88 13.019H471.338C472.488 13.019 473.299 12.423 474.449 11.102C475.937 12.49 477.154 13.151 477.154 14.34C477.154 15.86 475.666 16.521 473.435 16.521H466.807C466.807 20.486 466.672 26.236 466.469 29.539V29.671H472.961ZM426.683 41.368C426.683 49.76 418.365 56.832 409.168 56.832C402.337 56.832 396.048 54.188 396.048 48.77C396.048 45.201 398.415 44.21 402.337 44.21C402.202 47.382 402.405 48.902 403.352 50.488C404.772 52.866 407.68 53.726 410.385 53.726C418.094 53.726 419.582 47.712 419.582 41.434C419.582 31.72 410.453 28.283 399.768 31.786C399.024 31.324 398.28 31.06 398.415 30.332L402.27 10.573H417.621C421.881 10.573 422.49 9.78 423.369 8.922C423.843 8.459 424.519 8.855 424.316 9.384C423.504 11.433 422.422 14.407 422.287 15.2C422.22 15.529 421.814 15.662 421.34 15.662H404.501L401.932 28.879C413.293 25.64 426.683 28.086 426.683 41.368ZM372.492 56.303C372.425 56.501 372.289 56.568 372.154 56.568C371.816 56.568 369.584 56.237 359.508 56.237H345.171C344.698 56.237 344.022 54.056 343.819 52.866C353.151 44.804 366.068 32.513 366.068 21.676C366.068 16.653 363.228 11.763 357.682 11.763C352.001 11.763 350.378 17.182 351.46 23.79C347.944 24.583 344.36 24.319 344.495 19.759C344.63 14.604 350.378 9.054 358.426 9.054C366.744 9.054 373.304 14.208 373.304 21.477C373.304 33.9 355.991 45.729 349.567 51.413C368.029 51.413 369.449 52.338 374.115 47.778C374.589 47.316 375.197 47.778 374.995 48.307C373.304 52.734 372.763 55.51 372.492 56.303ZM306.738 56.832C294.294 56.832 289.425 45.928 289.425 32.843C289.425 20.618 295.647 9.054 307.008 9.054C318.64 9.054 324.05 20.221 324.05 32.513C324.05 45.003 318.031 56.832 306.738 56.832ZM317.084 33.9C317.084 23.262 313.5 11.763 305.994 11.763C298.825 11.763 296.391 21.94 296.391 31.456C296.391 42.293 299.366 53.923 307.752 53.923C315.732 53.923 317.084 43.747 317.084 33.9ZM267.763 56.303C267.696 56.501 267.56 56.568 267.425 56.568C267.087 56.568 264.855 56.237 254.779 56.237H240.442C239.969 56.237 239.292 54.056 239.089 52.866C248.422 44.804 261.339 32.513 261.339 21.676C261.339 16.653 258.498 11.763 252.953 11.763C247.272 11.763 245.649 17.182 246.731 23.79C243.215 24.583 239.63 24.319 239.766 19.759C239.901 14.604 245.649 9.054 253.697 9.054C262.015 9.054 268.575 14.208 268.575 21.477C268.575 33.9 251.262 45.729 244.838 51.413C263.3 51.413 264.72 52.338 269.386 47.778C269.859 47.316 270.468 47.778 270.265 48.307C268.575 52.734 268.034 55.51 267.763 56.303ZM198.549 41.765H193.612V0H208.76V4.362H198.549V41.765ZM129.199 59.408C124.059 56.104 118.92 53.726 114.592 51.611C113.78 51.215 114.186 50.289 115.2 50.421C122.977 51.545 129.334 53.461 131.836 54.915C137.449 58.153 134.136 62.581 129.199 59.408ZM133.595 15.926C133.595 18.57 131.16 19.56 128.184 18.966V16.454H90.5843C90.4493 19.231 87.7443 20.024 85.1743 19.627V1.917L89.5023 2.71C90.1113 2.842 90.5173 3.172 90.5843 3.568H125.277C126.562 3.568 127.305 2.974 128.184 1.983L132.445 3.371C135.285 4.296 133.595 5.816 133.595 7.203V15.926ZM99.6463 6.807H90.5843V13.085H99.6463V6.807ZM113.915 6.807H104.853V13.085H113.915V6.807ZM128.184 6.807H119.123V13.085H128.184V6.807ZM121.76 50.421V47.448H96.9413V47.91C96.9413 50.95 94.1013 51.744 91.3283 51.479V19.296L95.7913 20.089C96.6033 20.221 96.9413 20.618 96.9413 20.949H118.649C119.934 20.949 120.813 20.288 121.76 19.231L126.359 20.684C129.131 21.544 127.373 23.459 127.373 24.649V47.249C127.373 50.223 124.803 50.95 121.76 50.421ZM121.76 24.252H96.9413V28.614H121.76V24.252ZM121.76 31.918H96.9413V36.346H121.76V31.918ZM121.76 39.65H96.9413V44.078H121.76V39.65ZM104.989 51.28C106.273 52.47 105.733 53.065 104.921 53.527C99.7813 56.369 91.5993 59.674 83.0103 60.796C81.7933 60.928 81.7253 59.871 82.4013 59.607C90.9903 56.435 98.7003 51.876 102.216 48.703L104.989 51.28ZM56.8063 43.681C58.0913 43.681 58.7003 43.153 59.8493 41.83C61.2693 43.218 62.2843 44.078 62.2843 44.936C62.2843 46.324 60.9993 46.985 58.7673 46.985H55.3183V56.964C55.3183 59.938 52.2073 61.656 50.0433 59.938C47.9473 58.285 44.8363 57.029 43.3483 56.568C42.7403 56.369 42.6043 55.51 43.4843 55.576C44.7013 55.642 49.0293 55.775 49.8413 55.576C50.1113 55.51 50.2463 55.312 50.2463 54.981V46.985H32.3253V57.162C32.3253 59.739 29.8913 60.796 27.2533 60.202V46.985H23.6693C22.5193 46.985 22.1813 46.39 21.0323 43.681H27.2533V26.764L31.1083 27.49C31.9203 27.689 32.2583 28.019 32.3253 28.35H38.6823V24.451H24.7513C23.5343 24.451 23.3313 23.856 22.1143 21.147H33.1373V17.248H28.7413C27.5923 17.248 27.3213 16.587 26.1713 14.076H33.1373V10.111H26.4423C25.2243 10.111 25.0223 9.516 23.8043 6.939H33.1373V0.992L37.2623 1.785C37.9383 1.917 38.2093 2.181 38.2093 2.446V6.939H44.5663V1.19L48.6913 1.917C49.3673 2.049 49.6383 2.379 49.6383 2.643V6.939H53.8983C55.0483 6.939 55.5893 6.345 56.6713 5.155C58.0913 6.477 59.0383 7.203 59.0383 8.128C59.0383 9.451 57.8213 10.111 55.6563 10.111H49.6383V14.076H52.0053C53.2903 14.076 53.9663 13.482 54.9803 12.291C56.4003 13.547 57.2793 14.472 57.2793 15.2C57.2793 16.587 56.1303 17.248 53.9663 17.248H49.6383V21.147H55.7243C57.0093 21.147 57.6183 20.618 58.7003 19.296C60.1873 20.684 61.1343 21.544 61.1343 22.402C61.1343 23.79 59.9173 24.451 57.6853 24.451H43.7543V28.35H47.4063C48.6233 28.35 49.4353 27.821 50.2463 26.83L54.1013 27.954C57.0773 28.812 55.3183 30.399 55.3183 31.72V43.681H56.8063ZM32.3253 43.681H38.6823V39.187H32.3253V43.681ZM32.3253 31.522V36.016H38.6823V31.522H32.3253ZM44.5663 10.111H38.2093V14.076H44.5663V10.111ZM44.5663 21.147V17.248H38.2093V21.147H44.5663ZM50.2463 31.522H43.7543V36.016H50.2463V31.522ZM50.2463 39.187H43.7543V43.681H50.2463V39.187ZM21.0993 41.434C21.0993 44.408 18.5973 45.003 16.0273 44.606V41.83H8.31829C8.18329 44.672 5.95129 45.664 3.24629 45.201V2.446L7.30329 3.172C7.98029 3.304 8.31829 3.635 8.31829 3.965H13.3903C14.5403 3.965 15.2833 3.436 16.0273 2.446L20.0853 3.635C22.9933 4.495 21.0993 6.08 21.0993 7.402V41.434ZM16.0273 7.203H8.31829V15.464H16.0273V7.203ZM16.0273 18.702H8.31829V26.962H16.0273V18.702ZM16.0273 30.2H8.31829V38.527H16.0273V30.2ZM10.8203 45.796C12.5783 46.853 12.4433 47.249 11.6993 48.373C9.60329 51.545 5.41029 57.228 1.89329 60.135C1.21729 60.664 0.473287 59.938 0.947287 59.144C3.31429 55.179 6.28929 49.563 8.04729 44.143L10.8203 45.796ZM15.0133 44.871C17.3803 46.787 20.4233 49.695 21.8433 52.602C24.2783 57.558 19.6123 60.599 17.7863 55.972C16.7713 53.395 14.8783 47.712 13.9313 45.664C13.5933 45.003 14.1343 44.21 15.0133 44.871ZM542.108 39.518H564.695C565.845 39.518 566.453 39.055 567.468 38.063L572.202 39.386C574.771 40.112 573.081 41.566 573.081 42.954V57.228C573.081 59.871 570.376 60.731 567.468 60.4V56.897H542.108V57.162C542.108 59.938 539.132 60.731 536.495 60.334V37.931L540.958 38.791C541.635 38.923 542.04 39.187 542.108 39.518ZM542.108 53.527H567.468V49.76H542.108V53.527ZM542.108 46.522H567.468V42.756H542.108V46.522ZM620.993 40.377H641.348C642.566 40.377 643.174 39.915 644.121 38.791L648.787 40.311C651.763 41.302 649.802 42.954 649.802 44.143V57.558C649.802 60.268 646.691 60.928 644.121 60.466V56.104H620.993V57.493C620.993 60.003 618.017 61.193 615.312 60.532V38.527L619.978 39.386C620.858 39.518 620.993 39.915 620.993 40.377ZM620.993 52.47H644.121V43.879H620.993V52.47Z" fill="#5B0C81"/>
</svg>
