<svg width="68" height="68" viewBox="0 0 68 68" fill="none" xmlns="http://www.w3.org/2000/svg">
<path d="M61.4448 3.70756C62.2258 2.92655 63.4918 2.92661 64.2729 3.70756C65.0539 4.48861 65.0539 5.75464 64.2729 6.53568L6.51507 64.2925C5.73402 65.0736 4.46799 65.0736 3.68695 64.2925C2.90598 63.5115 2.90592 62.2454 3.68695 61.4644L61.4448 3.70756Z" fill="#A875BA"/>
<path d="M3.72591 3.70736C4.50695 2.92632 5.77298 2.92633 6.55404 3.70736L64.3128 61.4642L64.4505 61.6165C65.091 62.4021 65.0449 63.5602 64.3128 64.2923C63.5318 65.0733 62.2657 65.0733 61.4847 64.2923L3.72591 6.53548C2.94487 5.75444 2.94488 4.48841 3.72591 3.70736Z" fill="#A875BA"/>
</svg>
