<svg width="513" height="512" viewBox="0 0 513 512" fill="none" xmlns="http://www.w3.org/2000/svg">
<g clip-path="url(#clip0_1961_210)">
<path d="M386.21 -9.76585e-06C392.4 2.46999 394.69 7.04999 394.63 13.67C394.42 37.67 394.58 61.66 394.53 85.66C394.51 95.63 390.97 99 380.89 99.11C363.9 99.29 346.89 99.21 329.92 99.9C320.72 100.27 311.83 102.96 307.3 112.05C305.13 116.4 303.55 121.52 303.44 126.33C303.01 145.31 303.26 164.3 303.26 184.06C305.02 184.06 306.78 184.06 308.53 184.06C331.53 184.06 354.53 184.05 377.53 184.06C387.81 184.06 391.37 187.6 391.38 197.86C391.39 223.86 391.38 249.85 391.35 275.85C391.34 285.54 387.77 289.08 378.05 289.09C355.05 289.11 332.05 289.09 309.05 289.09C307.26 289.09 305.46 289.09 303.04 289.09V295.37C303.04 362.7 303 430.02 303.1 497.34C303.11 503.89 301.48 509.09 295.18 512H203.17C196.89 509.49 194.93 504.76 194.95 498.17C195.09 430.68 195.03 363.2 195.03 295.71C195.03 293.74 195.03 291.77 195.03 289.09C192.86 289.09 191.1 289.09 189.33 289.09C169.83 289.09 150.33 289.11 130.84 289.08C121.53 289.06 117.86 285.43 117.84 276.04C117.79 249.71 117.78 223.38 117.84 197.06C117.86 187.82 121.69 184.09 130.98 184.07C150.31 184.03 169.64 184.06 188.97 184.06C190.77 184.06 192.58 184.06 195.02 184.06C195.02 181.88 195.02 180.11 195.02 178.33C195.1 157.67 194.52 136.98 195.42 116.35C196.69 86.98 205.48 60.11 225.41 37.7C242.08 18.96 263.23 8.12999 287.54 3.07999C293.38 1.86999 299.29 1.00999 305.17 -0.0100098C332.17 -0.0100098 359.18 -0.0100098 386.18 -0.0100098L386.21 -9.76585e-06Z" fill="#712E81"/>
</g>
<defs>
<clipPath id="clip0_1961_210">
<rect width="512" height="512" fill="white" transform="translate(0.910034)"/>
</clipPath>
</defs>
</svg>
