<svg width="324" height="70" viewBox="0 0 324 70" fill="none" xmlns="http://www.w3.org/2000/svg">
<g clip-path="url(#clip0_1964_237)">
<path fill-rule="evenodd" clip-rule="evenodd" d="M321.08 55.7169H307.014C307.285 54.1959 307.285 53.668 308.231 53.602C312.356 53.338 311.613 51.883 309.584 46.201L307.555 40.584H290.987L287.673 49.637C286.388 53.139 286.861 53.271 291.595 53.602C291.054 55.254 290.987 55.7169 290.107 55.7169H278.273C278.543 54.0639 278.543 53.735 279.49 53.602C281.722 53.271 282.33 52.4129 284.765 46.2659L299.71 8.79695C300.048 8.00495 300.86 8.00495 301.198 8.79695L316.82 46.3989C319.119 51.9499 319.592 53.536 322.568 53.602C322.027 55.254 321.959 55.7169 321.08 55.7169ZM299.507 19.8339C299.44 19.7009 299.169 19.7009 299.102 19.8339L292.136 37.6759H306.27L299.507 19.8339ZM254.984 56.1129C254.24 56.1129 253.09 56.2449 250.588 56.1129C249.032 56.0469 246.192 55.452 243.69 52.743C242.54 51.487 241.052 49.8359 239.362 47.9189C235.98 53.1389 231.652 56.5099 224.957 56.5099C206.969 56.5099 203.858 37.5439 222.117 28.0939C221.238 27.0369 220.494 26.2429 220.021 25.6489C217.789 23.0059 216.166 19.9659 216.166 16.9259C216.166 13.2919 219.683 8.66495 227.121 8.66495C240.173 8.66495 243.352 20.2299 228.745 27.2349C231.788 30.6709 236.048 35.496 240.376 40.188C241.797 37.082 243.149 33.3149 244.704 29.0849C245.245 27.6309 244.366 27.1689 241.999 27.1689H240.647C241.12 25.8469 241.12 25.4499 241.999 25.4499H252.887C252.617 26.8379 252.279 27.1689 251.67 27.1689C249.709 27.1689 248.491 27.4989 247.409 30.2089C245.651 34.5699 244.096 38.733 242.337 42.368C248.221 48.712 253.631 54.329 255.322 55.188C256.133 55.585 255.728 56.1129 254.984 56.1129ZM227.189 10.9129C220.021 10.9129 220.427 17.7189 226.242 24.3929L227.189 25.5169C234.898 20.3619 234.087 10.9129 227.189 10.9129ZM223.74 30.0099C211.973 38.2709 216.166 51.686 226.107 51.686C231.382 51.686 234.696 49.571 237.401 45.672C232.802 40.517 227.46 34.3049 223.74 30.0099ZM188.006 68.4709C181.243 66.0249 176.915 59.417 171.573 53.999C168.394 55.452 164.607 56.311 160.279 56.311C145.537 56.311 136.204 45.937 136.204 33.116C136.204 17.851 146.754 8.26895 160.009 8.26895C174.075 8.26895 184.625 18.4469 184.625 32.1259C184.625 39.5269 181.784 46.465 176.307 51.025C181.784 55.782 186.586 61.2679 191.523 63.0509C199.367 65.8279 203.087 64.9679 207.212 63.6469C207.888 63.4479 208.362 63.9109 207.753 64.5049C204.101 67.9419 196.459 71.5769 188.006 68.4709ZM160.482 53.206C163.796 53.206 166.636 52.6109 168.935 51.4869C167.718 50.4959 166.501 49.571 165.148 48.778C160.888 46.333 155.478 45.4079 148.106 47.0589C151.082 50.8929 155.41 53.206 160.482 53.206ZM177.321 33.5789C177.321 23.2709 171.235 11.2429 159.603 11.2429C149.662 11.2429 143.305 19.1729 143.305 31.7949C143.305 37.4109 144.793 42.434 147.43 46.201C155.545 41.839 162.376 42.6319 168.056 45.341C169.747 46.201 171.438 47.191 172.993 48.382C175.901 45.012 177.321 40.0559 177.321 33.5789ZM124.48 42.831C123.331 52.28 120.423 58.823 116.703 59.549C114.269 60.078 113.525 57.567 108.926 55.65C108.25 55.386 108.588 54.66 109.264 54.66C114.945 54.924 115.148 54.857 116.095 53.338C117.312 51.421 118.394 48.315 119.002 43.888C119.949 36.949 120.152 27.4339 120.085 19.8339H113.863C113.66 27.5659 113.254 34.0409 112.037 39.0639C109.873 48.183 104.53 56.245 96.6859 59.945C95.7389 60.409 95.0629 59.549 95.6039 59.02C101.352 53.404 105.545 47.1909 107.438 36.7509C108.25 32.2579 108.588 26.7059 108.656 19.8339H103.854C102.637 19.8339 102.434 18.5789 101.284 16.3979H108.723C108.723 11.6389 108.588 6.22095 108.52 0.272949L112.713 1.06595C113.525 1.19795 113.93 1.66195 113.93 1.92595C113.93 7.14595 113.93 11.9699 113.863 16.3979H116.906C118.123 16.3979 118.935 15.9349 119.949 14.8119L124.007 16.1989C127.118 17.2559 125.359 18.9079 125.359 20.0319C125.359 29.9449 125.224 36.685 124.48 42.831ZM99.4589 14.3489H88.9089V18.5789H92.0199C93.1019 18.5789 93.8459 18.1819 94.7249 17.2559L98.7819 18.4469C101.487 19.2389 99.8639 20.7589 99.8639 21.8819V36.553C99.8639 38.997 97.2269 39.857 94.7249 39.394V37.6759H88.9089V42.963H95.7389C96.8209 42.963 97.5649 42.2349 98.6469 41.1129C100.202 42.5659 101.081 43.095 101.081 44.02C101.081 45.54 99.7289 46.2659 97.4969 46.2659H88.9089V51.09C93.1689 50.562 96.9559 49.901 99.3229 49.372C100.135 49.175 100.608 50.2979 99.8639 50.6279C93.9809 53.2059 79.9139 56.2449 73.8959 57.5009C71.9349 57.8979 71.8669 57.963 68.8239 53.338C72.8139 53.007 78.3589 52.4129 83.7689 51.7509V46.2659H73.7599C72.6109 46.2659 72.4079 45.738 71.1229 42.963H83.7689V37.6759H77.8859C77.4119 39.4599 75.1809 40.3849 72.8139 39.8569V17.0579L76.8709 17.7189C77.6829 17.8509 77.8859 18.1819 77.9529 18.5789H83.7689V14.3489H70.9199C69.7029 14.3489 69.3649 13.8199 68.2149 11.0449H83.7689V6.81495C79.1029 7.14595 74.4369 7.34395 71.1909 7.34395C70.0409 7.34395 69.9059 6.08895 70.9199 5.95695C76.1269 5.22995 80.3199 4.43695 84.2419 3.70895C88.5709 2.91595 92.0869 2.05795 96.3479 0.537949L98.3769 2.98295C99.5939 4.50195 99.2559 5.03095 97.2939 5.36195C94.9279 5.75795 92.0199 6.08895 88.9089 6.41895V11.0449H97.5649C98.6469 11.0449 99.2559 10.5819 100.338 9.39295C101.825 10.7139 102.908 11.1769 102.908 12.1679C102.908 13.6879 101.69 14.3489 99.4589 14.3489ZM88.9089 34.372H94.7249V29.7459H88.9089V34.372ZM88.9089 26.5079H94.7249V21.8159H88.9089V26.5079ZM83.7689 21.8159H77.9529V26.5079H83.7689V21.8159ZM83.7689 29.7459H77.9529V34.372H83.7689V29.7459ZM57.0999 23.7989H41.7479V34.372H45.9409C47.2259 34.372 47.9029 33.909 48.9169 32.852L53.6509 34.372C56.3559 35.232 54.4619 36.619 54.4619 38.007V56.3769C54.4619 59.3509 51.8929 60.21 48.9169 59.88V54.1959H29.3729V55.65C29.3729 59.087 26.8029 59.681 23.8269 59.351V32.72L28.2229 33.5789C28.8989 33.7109 29.3049 33.976 29.3729 34.372H36.1359V23.7989H22.0689C20.8519 23.7989 20.5139 23.2039 19.1609 20.2969H36.1359V8.73195C30.8609 9.32595 25.7889 9.72395 22.7449 9.59195C22.1369 9.59195 21.4609 8.40095 22.6779 8.20295C30.7929 6.74995 44.7919 3.77595 51.0809 1.33095L53.3129 3.57695C54.7329 4.96495 54.4619 5.62595 53.4479 5.88995C51.0809 6.55095 46.6179 7.34395 41.7479 8.00495V20.2969H55.0029C56.1529 20.2969 56.8289 19.7009 58.1139 18.2479C59.6019 19.8339 60.7519 20.6259 60.7519 21.5509C60.7519 23.0719 59.4669 23.7989 57.0999 23.7989ZM29.3729 37.875V50.562H48.9169V37.875H29.3729ZM11.1139 43.16C12.1959 47.39 13.0069 50.958 12.9399 53.271C12.8039 56.973 10.9109 59.681 8.54392 59.748C6.37992 59.813 4.82492 58.03 5.56792 55.65C6.58292 52.479 8.94992 47.852 8.54392 44.416C8.27392 42.235 5.16292 41.31 1.37592 41.046C0.360924 40.981 0.225924 39.725 1.30792 39.659C5.43292 39.394 6.37992 38.865 7.59692 36.817C10.5729 31.861 16.3209 18.512 19.0939 11.4419C19.5669 10.2519 20.9199 10.6489 20.5809 11.7709C14.9679 29.5479 9.96392 38.733 11.1139 43.16ZM11.8579 10.3839C9.82892 7.67495 8.07092 4.70095 6.85292 2.98295C6.24492 2.12295 6.64992 1.33095 7.73192 1.79395C10.7759 3.11495 13.4809 4.17195 15.2389 5.88995C18.6199 9.19395 15.0359 14.6129 11.8579 10.3839ZM5.56792 25.1209C3.74192 22.3439 2.25492 19.2389 0.969923 16.9919C0.495923 16.1989 0.901923 15.5379 1.84892 15.9349C4.95992 17.3229 7.25892 18.5119 8.94992 20.4939C12.1959 24.2609 8.27392 29.2169 5.56792 25.1209Z" fill="#5B0C81"/>
</g>
<defs>
<clipPath id="clip0_1964_237">
<rect width="323" height="70" fill="white" transform="translate(0.5)"/>
</clipPath>
</defs>
</svg>
