<svg width="263" height="55" viewBox="0 0 263 55" fill="none" xmlns="http://www.w3.org/2000/svg">
<g clip-path="url(#clip0_1968_249)">
<path fill-rule="evenodd" clip-rule="evenodd" d="M261.177 42.3528H248.826C249.063 41.0178 249.063 40.5538 249.894 40.4958C253.517 40.2638 252.864 38.9878 251.082 33.9978L249.301 29.0658H234.752L231.842 37.0148C230.714 40.0898 231.129 40.2058 235.286 40.4958C234.811 41.9468 234.752 42.3528 233.98 42.3528H223.588C223.825 40.9028 223.825 40.6118 224.657 40.4958C226.616 40.2058 227.151 39.4518 229.288 34.0558L242.412 1.15579C242.709 0.459789 243.422 0.459789 243.719 1.15579L257.436 34.1718C259.455 39.0458 259.871 40.4378 262.484 40.4958C262.009 41.9468 261.949 42.3528 261.177 42.3528ZM242.234 10.8458C242.175 10.7298 241.937 10.7298 241.878 10.8458L235.761 26.5128H248.172L242.234 10.8458ZM211.496 42.7008C210.842 42.7008 209.833 42.8168 207.636 42.7008C206.27 42.6428 203.776 42.1208 201.578 39.7418C200.569 38.6398 199.263 37.1888 197.778 35.5058C194.809 40.0898 191.008 43.0498 185.129 43.0498C169.333 43.0498 166.602 26.3958 182.635 18.0988C181.863 17.1708 181.21 16.4738 180.794 15.9518C178.835 13.6308 177.409 10.9618 177.409 8.29279C177.409 5.10179 180.497 1.03979 187.03 1.03979C198.49 1.03979 201.282 11.1938 188.455 17.3448C191.127 20.3618 194.868 24.5978 198.669 28.7178C199.916 25.9898 201.103 22.6828 202.469 18.9698C202.944 17.6928 202.172 17.2868 200.094 17.2868H198.906C199.322 16.1258 199.322 15.7778 200.094 15.7778H209.655C209.417 16.9968 209.12 17.2868 208.586 17.2868C206.864 17.2868 205.795 17.5768 204.844 19.9558C203.301 23.7858 201.935 27.4408 200.391 30.6318C205.557 36.2028 210.308 41.1348 211.792 41.8888C212.505 42.2368 212.149 42.7008 211.496 42.7008ZM187.089 3.01279C180.794 3.01279 181.151 8.98979 186.257 14.8498L187.089 15.8358C193.858 11.3098 193.146 3.01279 187.089 3.01279ZM184.06 19.7818C173.727 27.0348 177.409 38.8138 186.139 38.8138C190.771 38.8138 193.68 36.9568 196.056 33.5338C192.018 29.0078 187.326 23.5528 184.06 19.7818ZM177.908 49.3158C178.502 49.1418 178.918 49.5478 178.383 50.0698C175.176 53.0868 168.466 56.2788 161.043 53.5518C155.105 51.4048 151.304 45.6028 146.613 40.8438C143.822 42.1208 140.496 42.8748 136.696 42.8748C123.75 42.8748 115.555 33.7648 115.555 22.5088C115.555 9.10579 124.819 0.691789 136.458 0.691789C148.81 0.691789 158.074 9.62779 158.074 21.6388C158.074 28.1368 155.58 34.2298 150.77 38.2338C155.58 42.4108 159.796 47.2268 164.131 48.7938C171.02 51.2308 174.286 50.4768 177.908 49.3158ZM136.874 40.1478C139.784 40.1478 142.278 39.6258 144.297 38.6398C143.228 37.7688 142.159 36.9568 140.971 36.2608C137.23 34.1138 132.48 33.3018 126.007 34.7518C128.62 38.1178 132.42 40.1478 136.874 40.1478ZM151.66 22.9148C151.66 13.8628 146.316 3.30279 136.102 3.30279C127.373 3.30279 121.791 10.2658 121.791 21.3488C121.791 26.2808 123.097 30.6898 125.413 33.9978C132.539 30.1678 138.537 30.8648 143.525 33.2428C145.009 33.9978 146.494 34.8678 147.86 35.9118C150.414 32.9528 151.66 28.6018 151.66 22.9148ZM98.673 32.9948C97.838 39.8578 95.726 44.6078 93.025 45.1358C91.257 45.5198 90.716 43.6968 87.377 42.3048C86.886 42.1128 87.131 41.5848 87.622 41.5848C91.748 41.7768 91.895 41.7288 92.583 40.6258C93.467 39.2338 94.253 36.9788 94.695 33.7628C95.382 28.7248 95.529 21.8138 95.48 16.2958H90.962C90.815 21.9108 90.52 26.6128 89.636 30.2598C88.065 36.8828 84.185 42.7368 78.488 45.4238C77.8 45.7598 77.309 45.1358 77.702 44.7518C81.876 40.6738 84.921 36.1628 86.296 28.5808C86.886 25.3168 87.131 21.2868 87.181 16.2958H83.693C82.809 16.2958 82.662 15.3838 81.827 13.8008H87.23C87.23 10.3448 87.131 6.41079 87.082 2.09179L90.127 2.66679C90.716 2.76379 91.011 3.09879 91.011 3.29079C91.011 7.08179 91.011 10.5848 90.962 13.8008H93.172C94.056 13.8008 94.645 13.4648 95.382 12.6488L98.329 13.6568C100.588 14.4238 99.311 15.6238 99.311 16.4398C99.311 23.6378 99.213 28.5328 98.673 32.9948ZM80.501 12.3128H72.84V15.3838H75.099C75.885 15.3838 76.425 15.0958 77.063 14.4238L80.01 15.2878C81.975 15.8638 80.796 16.9678 80.796 17.7828V28.4368C80.796 30.2118 78.88 30.8358 77.063 30.4998V29.2518H72.84V33.0918H77.8C78.586 33.0918 79.126 32.5638 79.912 31.7478C81.041 32.8038 81.68 33.1868 81.68 33.8598C81.68 34.9628 80.698 35.4908 79.077 35.4908H72.84V38.9938C75.934 38.6098 78.684 38.1298 80.403 37.7458C80.992 37.6018 81.336 38.4178 80.796 38.6578C76.523 40.5298 66.308 42.7368 61.937 43.6488C60.513 43.9368 60.464 43.9848 58.253 40.6258C61.151 40.3848 65.178 39.9538 69.107 39.4738V35.4908H61.839C61.004 35.4908 60.856 35.1068 59.923 33.0918H69.107V29.2518H64.834C64.491 30.5478 62.87 31.2198 61.151 30.8358V14.2798L64.098 14.7598C64.687 14.8558 64.834 15.0958 64.884 15.3838H69.107V12.3128H59.776C58.892 12.3128 58.646 11.9288 57.812 9.91279H69.107V6.84279C65.719 7.08179 62.33 7.22579 59.972 7.22579C59.137 7.22579 59.039 6.31379 59.776 6.21879C63.558 5.68979 66.603 5.11479 69.451 4.58679C72.594 4.01079 75.148 3.38679 78.242 2.28379L79.715 4.05879C80.599 5.16279 80.354 5.54679 78.93 5.78679C77.211 6.07479 75.099 6.31379 72.84 6.55479V9.91279H79.126C79.912 9.91279 80.354 9.57779 81.14 8.71379C82.22 9.67379 83.006 10.0098 83.006 10.7288C83.006 11.8328 82.122 12.3128 80.501 12.3128ZM72.84 26.8528H77.063V23.4938H72.84V26.8528ZM72.84 21.1428H77.063V17.7358H72.84V21.1428ZM69.107 17.7358H64.884V21.1428H69.107V17.7358ZM69.107 23.4938H64.884V26.8528H69.107V23.4938ZM41.884 19.1748H30.736V26.8528H33.781C34.714 26.8528 35.205 26.5168 35.942 25.7488L39.38 26.8528C41.344 27.4768 39.969 28.4848 39.969 29.4928V42.8328C39.969 44.9928 38.103 45.6158 35.942 45.3758V41.2498H21.748V42.3048C21.748 44.7998 19.882 45.2318 17.721 44.9928V25.6528L20.913 26.2768C21.405 26.3728 21.699 26.5648 21.748 26.8528H26.66V19.1748H16.444C15.56 19.1748 15.315 18.7428 14.332 16.6318H26.66V8.23379C22.829 8.66579 19.145 8.95379 16.935 8.85779C16.494 8.85779 16.002 7.99379 16.886 7.84979C22.78 6.79379 32.946 4.63479 37.513 2.85879L39.134 4.49079C40.166 5.49879 39.969 5.97779 39.232 6.16979C37.513 6.64979 34.272 7.22579 30.736 7.70579V16.6318H40.362C41.197 16.6318 41.688 16.1998 42.621 15.1438C43.701 16.2958 44.536 16.8718 44.536 17.5438C44.536 18.6468 43.603 19.1748 41.884 19.1748ZM21.748 29.3958V38.6098H35.942V29.3958H21.748ZM8.48804 33.2358C9.27404 36.3068 9.86304 38.8978 9.81404 40.5778C9.71604 43.2648 8.34104 45.2318 6.62204 45.2798C5.05004 45.3288 3.92104 44.0328 4.46104 42.3048C5.19804 40.0018 6.91704 36.6428 6.62204 34.1468C6.42504 32.5638 4.16604 31.8918 1.41604 31.6998C0.679044 31.6518 0.581044 30.7398 1.36704 30.6918C4.36304 30.4998 5.05004 30.1158 5.93404 28.6288C8.09504 25.0298 12.27 15.3358 14.283 10.2008C14.627 9.33779 15.61 9.62579 15.364 10.4418C11.287 23.3498 7.65304 30.0198 8.48804 33.2358ZM9.02804 9.43379C7.55504 7.46579 6.27804 5.30679 5.39404 4.05879C4.95204 3.43479 5.24704 2.85879 6.03304 3.19479C8.24304 4.15479 10.207 4.92279 11.484 6.16979C13.94 8.56979 11.337 12.5048 9.02804 9.43379ZM4.46104 20.1348C3.13504 18.1188 2.05504 15.8638 1.12104 14.2328C0.778044 13.6568 1.07204 13.1768 1.76004 13.4648C4.01904 14.4718 5.68904 15.3358 6.91704 16.7758C9.27404 19.5108 6.42504 23.1098 4.46104 20.1348Z" fill="#7E308E"/>
</g>
<defs>
<clipPath id="clip0_1968_249">
<rect width="263" height="55" fill="white"/>
</clipPath>
</defs>
</svg>
