<svg width="73" height="73" viewBox="0 0 73 73" fill="none" xmlns="http://www.w3.org/2000/svg">
<g clip-path="url(#clip0_1972_265)">
<path fill-rule="evenodd" clip-rule="evenodd" d="M36.4998 72.9414C16.3718 72.9414 0.0548263 56.6264 0.054828 36.5004C0.0548298 16.3744 16.3718 0.0583981 36.4998 0.0583998C56.6278 0.0584016 72.9448 16.3744 72.9448 36.5004C72.9448 56.6264 56.6278 72.9414 36.4998 72.9414Z" fill="#9C6CB0"/>
<path d="M43.5607 53.0392C42.9749 53.625 42.0254 53.625 41.4396 53.0392L25.9601 37.5597C25.6788 37.2784 25.5206 36.897 25.5206 36.4991C25.5206 36.1013 25.6788 35.7199 25.9601 35.4386L41.4396 19.9611C42.0253 19.3756 42.975 19.3756 43.5607 19.9611C44.1464 20.5469 44.1465 21.4974 43.5607 22.0831L29.1427 36.5001L43.5607 50.9181C44.1464 51.5039 44.1464 52.4534 43.5607 53.0392Z" fill="white"/>
</g>
<defs>
<clipPath id="clip0_1972_265">
<rect width="73" height="73" fill="white" transform="translate(73 73) rotate(-180)"/>
</clipPath>
</defs>
</svg>
