<svg width="89" height="21" viewBox="0 0 89 21" fill="none" xmlns="http://www.w3.org/2000/svg">
<path fill-rule="evenodd" clip-rule="evenodd" d="M87.1738 5.43902H84.4708V8.52102H86.1828C86.5888 8.52102 86.7907 8.30102 87.2188 7.88302C87.6698 8.32302 88.0308 8.63102 88.0308 8.89602C88.0308 9.40202 87.5798 9.64402 86.8588 9.64402H84.4708V12.726H86.2278C86.6338 12.726 86.8358 12.506 87.2648 12.088C87.7148 12.528 88.0748 12.858 88.0748 13.1C88.0748 13.607 87.6247 13.848 86.9037 13.848H84.4708V17.063H86.9717C87.3997 17.063 87.5798 16.798 88.0308 16.358C88.5038 16.821 88.8638 17.173 88.8638 17.437C88.8638 17.987 88.4137 18.251 87.6017 18.251H80.3257V19.066C80.3257 20.079 79.4698 20.431 78.5908 20.255V8.21302C77.8698 9.46802 77.1038 10.547 76.3158 11.207C76.1128 11.361 75.7978 11.207 75.9328 10.965C76.9238 9.49002 78.0958 6.82602 78.6588 4.91102C79.0638 3.54602 79.4918 1.96102 79.6948 0.618017L80.8208 1.08002C81.3168 1.27902 81.3618 1.43302 81.2938 1.74102C81.1368 2.40102 80.8207 3.30402 80.4377 4.29502H86.5208C86.9038 4.29502 87.1068 4.07502 87.5568 3.61202C88.0308 4.09602 88.3907 4.40502 88.3907 4.66902C88.3907 5.17502 87.9398 5.43902 87.1738 5.43902ZM82.7357 5.43902H80.3257V8.52102H82.7357V5.43902ZM82.7357 9.64402H80.3257V12.726H82.7357V9.64402ZM82.7357 13.848H80.3257V17.063H82.7357V13.848ZM83.3668 3.34802C83.0518 2.46702 82.6008 1.23502 82.3528 0.618017C82.2408 0.354017 82.4887 0.222017 82.7137 0.354017C83.5697 0.816017 84.4708 1.54302 84.7638 2.33502C85.3498 3.85402 83.8628 4.73502 83.3668 3.34802ZM76.5858 5.77002H73.5667C73.2067 7.75102 72.7558 9.71002 72.2378 11.141C71.2688 13.827 70.1658 15.896 68.8358 17.041C68.5658 17.283 68.2958 17.085 68.4758 16.754C69.3098 15.213 70.2777 13.144 70.9987 10.436C71.3587 9.09402 71.6978 7.55302 71.9448 5.77002H69.3318C68.9708 5.77002 68.8807 5.54902 68.4977 4.62502H72.0807C72.2377 3.32602 72.3507 1.91702 72.3727 0.398017L73.5898 0.706017C74.0178 0.816017 74.1528 0.904017 74.1298 1.30102C74.0628 2.29102 73.9278 3.43602 73.7468 4.62502H75.8427C76.2927 4.62502 76.4738 4.38302 76.8788 3.96402C77.3968 4.42702 77.7347 4.69102 77.7347 5.02102C77.7347 5.52802 77.3068 5.77002 76.5858 5.77002ZM64.9977 13.848H56.3248C56.3018 13.959 56.2568 14.069 56.2118 14.179C55.3338 16.336 52.9228 19.506 47.2908 20.299C46.9528 20.343 46.7957 19.968 47.1107 19.859C50.6247 18.626 53.2838 16.666 54.3418 14.201L54.4778 13.848H47.1558C46.6828 13.848 46.6148 13.65 46.1198 12.66H49.7238V7.02402L51.0308 7.26602C51.4138 7.33202 51.5038 7.48702 51.5258 7.59702H55.2888C55.3108 6.45202 55.2888 5.41702 55.2888 4.73502L56.5498 4.95502C57.0008 5.04302 57.1128 5.17502 57.1128 5.39502C57.1128 5.85802 57.1358 6.65002 57.1128 7.59702H59.9518C60.3348 7.59702 60.5598 7.44302 60.8528 7.11202L62.1818 7.53002C63.2408 7.86102 62.6548 8.32302 62.6548 8.80802V12.66H64.2768C64.6598 12.66 64.8858 12.462 65.3138 11.978C65.8538 12.506 66.2368 12.748 66.2368 13.1C66.2368 13.65 65.7417 13.848 64.9977 13.848ZM51.5258 8.74202V12.66H54.8158C55.0858 11.449 55.1988 10.062 55.2658 8.74202H51.5258ZM60.8528 8.74202H57.0908C57.0458 10.018 56.9328 11.427 56.6628 12.66H60.8528V8.74202ZM64.4578 3.89802H60.2898V5.24102C60.2898 6.18802 59.4108 6.47402 58.4878 6.29802V3.89802H53.8468V5.08702C53.8468 6.05602 53.1028 6.45202 52.0448 6.27602V3.89802H47.2688C46.9078 3.89802 46.7958 3.67802 46.3668 2.75402H52.0448V0.442017L53.4188 0.706017C53.6888 0.750017 53.8468 0.882017 53.8468 1.01402V2.75402H58.4878V0.464017L59.8618 0.728017C60.1548 0.772017 60.2898 0.948017 60.2898 1.03702V2.75402H63.7137C64.1867 2.75402 64.4348 2.55602 64.8628 2.11502C65.3808 2.57802 65.6967 2.86402 65.6967 3.17202C65.6967 3.67802 65.2238 3.89802 64.4578 3.89802ZM42.4168 19.33H30.4088C29.9578 19.33 29.8678 19.088 29.4398 18.097H35.9508V12.814H32.6168C32.1658 12.814 32.0308 12.594 31.6478 11.625H35.9508V6.91402H32.5938C31.7828 8.65302 30.8148 10.282 29.8908 11.317C29.7328 11.515 29.3498 11.361 29.5078 11.031C30.8818 8.16902 31.8958 5.02102 32.4818 1.85102L33.6758 2.37902C34.1258 2.57802 34.1937 2.64402 34.0807 3.04002C33.8327 3.89802 33.4948 4.82302 33.1118 5.74702H35.9508V0.354017L37.4378 0.662017C37.7078 0.728017 37.8208 0.861017 37.8208 0.948017V5.74702H40.7498C41.1998 5.74702 41.4247 5.50502 41.8307 5.04302C42.3937 5.52802 42.7767 5.83602 42.7767 6.16602C42.7767 6.69402 42.3268 6.91402 41.4928 6.91402H37.8208V11.625H40.0288C40.4568 11.625 40.6818 11.427 41.0878 10.943C41.6508 11.449 42.0108 11.691 42.0108 12.022C42.0108 12.528 41.5828 12.814 40.7498 12.814H37.8208V18.097H41.6958C42.1458 18.097 42.3718 17.877 42.7998 17.393C43.3398 17.921 43.7458 18.185 43.7458 18.538C43.7458 19.088 43.2728 19.33 42.4168 19.33ZM29.2828 7.17902C28.9668 6.14402 28.7648 4.97702 28.6748 4.51502C28.6068 4.20702 28.8768 4.09602 29.0798 4.29502C29.6878 4.91102 30.4318 5.57102 30.7698 6.45202C31.2428 7.68502 29.7108 8.56502 29.2828 7.17902ZM26.4438 20.189V0.442017L27.8177 0.728017C28.1337 0.795017 28.2458 0.948017 28.2458 1.03702V18.934C28.2458 20.034 27.4128 20.365 26.4438 20.189ZM23.7408 8.87402C24.3938 7.79502 25.0918 6.58402 25.4748 5.10902C25.5428 4.84502 25.9258 4.86702 25.9258 5.08702C25.9258 6.56202 25.9037 8.16902 25.4297 9.53402C24.8447 11.229 22.6368 10.679 23.7408 8.87402ZM20.1278 19.572C19.8798 19.814 19.7668 19.859 19.1818 19.925C17.9428 20.057 16.2978 20.1 14.9238 20.079C10.8008 20.013 7.24176 19.748 5.05576 16.534C4.58276 17.173 3.77175 18.383 2.96075 19.374C2.42075 20.034 2.21775 19.947 0.84375 18.89C2.33075 17.855 3.54675 16.909 4.13275 16.226V11.537H1.99275C1.67675 11.537 1.56475 11.229 1.20375 10.393H3.34375C3.79475 10.393 4.01976 10.216 4.26776 9.93002L5.43875 10.348C6.47575 10.723 5.84476 11.097 5.84476 11.603V16.182C6.72376 17.085 7.71475 17.591 8.70575 17.921C10.5537 18.515 12.7388 18.648 14.9908 18.604C17.1538 18.56 19.9027 18.317 20.9837 18.141C21.2537 18.097 21.2988 18.274 21.2088 18.362C20.7588 18.89 20.4878 19.198 20.1278 19.572ZM10.4857 9.79802C10.2147 9.79802 10.1248 9.57802 9.78775 8.80802H12.9638V7.46402L14.1808 7.70702C14.4958 7.77302 14.5858 7.88302 14.5858 8.03702V8.80802H16.1178C16.4558 8.80802 16.6588 8.60902 16.9738 8.25702C17.4468 8.67602 17.6948 8.89602 17.6948 9.18202C17.6948 9.60002 17.3348 9.79802 16.7258 9.79802H14.5858V11.273C14.8338 11.229 14.9908 11.075 15.2388 10.811L16.5008 11.207C17.3348 11.471 16.8607 11.867 16.8607 12.264V14.553C16.8607 15.522 16.1178 15.786 15.2388 15.654V14.862H12.4228C12.4008 15.83 11.3418 15.918 10.8008 15.808V10.745L12.0178 10.987C12.2658 11.031 12.4008 11.163 12.4228 11.295H12.9638V9.79802H10.4857ZM12.4228 12.286V13.827H15.2388V12.286H12.4228ZM7.84976 17.261V5.70302L9.13376 5.96802C9.42676 6.03402 9.51675 6.14402 9.53975 6.25402H11.6568C11.5218 6.16602 11.3868 6.01202 11.2738 5.79202C10.8908 4.97702 10.5538 4.22902 10.3958 3.87702C10.3058 3.67802 10.5078 3.50202 10.7558 3.61202C11.3188 3.87702 12.1297 4.18402 12.5807 4.77902C13.0317 5.37302 12.7838 6.01202 12.3558 6.25402H14.5408C14.8108 5.63702 15.2168 4.60302 15.5768 3.43602L16.6588 4.07502C17.1088 4.33902 17.1538 4.44902 16.9058 4.73502C16.4778 5.21902 16.0048 5.74702 15.4868 6.25402H17.2218C17.6048 6.25402 17.8078 6.12202 18.1448 5.77002L19.5648 6.21002C20.4878 6.49602 19.8348 7.02402 19.8348 7.39802V16.579C19.8348 17.459 19.0468 18.053 18.3478 17.547C17.7618 17.129 16.9518 16.777 16.4778 16.6C16.2978 16.534 16.2758 16.248 16.5908 16.27C17.0418 16.292 17.7618 16.314 18.0098 16.248C18.0998 16.226 18.1448 16.138 18.1448 16.028V7.31102H9.53975V16.248C9.53975 17.107 8.72876 17.481 7.84976 17.261ZM19.2718 3.41402H7.89476C7.55676 3.41402 7.44375 3.28202 7.01675 2.33502H13.4598C13.3688 2.26902 13.2788 2.15902 13.1888 2.04902C12.8058 1.52102 12.4227 0.927017 12.0397 0.376017C11.9047 0.178017 12.0848 0.0240168 12.4008 0.112017C13.2788 0.354017 14.1578 0.574017 14.5638 1.03702C14.9688 1.49902 14.8108 2.04902 14.4728 2.33502H18.6638C19.0238 2.33502 19.2718 2.09302 19.6998 1.63102C20.2408 2.13702 20.5788 2.35702 20.5788 2.68802C20.5788 3.19402 20.1048 3.41402 19.2718 3.41402ZM4.47075 4.00902L2.69075 1.78502C2.46575 1.52102 2.62376 1.34502 2.91576 1.43302C3.97476 1.76302 4.89876 2.13702 5.50676 2.64402C6.70076 3.63402 5.57475 5.39502 4.47075 4.00902ZM3.59175 8.12502C2.84875 7.26602 2.28475 6.47402 1.74475 5.74702C1.63175 5.59402 1.67675 5.26302 2.03775 5.39502C2.91575 5.72602 3.92975 6.01202 4.74075 6.80402C5.70975 7.75102 4.71875 9.44602 3.59175 8.12502ZM57.5188 14.509C60.3798 15.632 62.7457 16.864 64.0967 18.075C65.4257 19.242 64.7047 21.179 63.3307 19.925C62.2047 18.89 59.0508 16.138 57.3158 14.928C56.9558 14.663 57.2038 14.377 57.5188 14.509ZM74.2428 7.02402L75.4148 7.48702C75.8428 7.66302 75.9327 7.79502 75.8427 8.12502C75.4597 9.42402 74.1758 13.518 72.7108 15.874C73.8378 15.61 74.9417 15.301 75.8647 14.994C75.6397 14.223 75.3698 13.409 75.1438 12.836C75.0318 12.528 75.2568 12.374 75.5048 12.572C76.3608 13.276 77.4868 14.553 77.9148 15.852C78.3658 17.195 76.8568 18.538 76.3828 16.777L76.0908 15.742C74.7608 16.38 73.2967 17.019 71.8777 17.613C71.2687 17.877 71.1338 17.811 70.0078 16.468C70.5488 16.38 71.1338 16.248 71.7418 16.116C72.7558 13.827 73.9498 9.44602 74.2428 7.02402Z" fill="#631B72"/>
</svg>
