<svg width="89" height="21" viewBox="0 0 89 21" fill="none" xmlns="http://www.w3.org/2000/svg">
<path fill-rule="evenodd" clip-rule="evenodd" d="M87.1741 5.4389H84.4711V8.5209H86.1831C86.5891 8.5209 86.7911 8.3009 87.2201 7.8829C87.6701 8.3229 88.0301 8.6309 88.0301 8.8959C88.0301 9.4019 87.5801 9.6439 86.8591 9.6439H84.4711V12.7259H86.2281C86.6341 12.7259 86.8371 12.5059 87.2641 12.0879C87.7151 12.5279 88.0761 12.8579 88.0761 13.0999C88.0761 13.6069 87.6251 13.8479 86.9041 13.8479H84.4711V17.0629H86.9721C87.4001 17.0629 87.5801 16.7979 88.0301 16.3579C88.5031 16.8209 88.8641 17.1729 88.8641 17.4369C88.8641 17.9869 88.4131 18.2509 87.6031 18.2509H80.3261V19.0659C80.3261 20.0789 79.4701 20.4309 78.5911 20.2549V8.2129C77.8701 9.4679 77.1041 10.5469 76.3161 11.2069C76.1131 11.3609 75.7981 11.2069 75.9331 10.9649C76.9241 9.4899 78.0951 6.8259 78.6591 4.9109C79.0641 3.5459 79.4921 1.9609 79.6951 0.617897L80.8211 1.0799C81.3171 1.2789 81.3621 1.4329 81.2951 1.7409C81.1371 2.4009 80.8211 3.3039 80.4391 4.2949H86.5211C86.9041 4.2949 87.1071 4.0749 87.5571 3.6119C88.0301 4.0959 88.3911 4.4049 88.3911 4.6689C88.3911 5.1749 87.9401 5.4389 87.1741 5.4389ZM82.7361 5.4389H80.3261V8.5209H82.7361V5.4389ZM82.7361 9.6439H80.3261V12.7259H82.7361V9.6439ZM82.7361 13.8479H80.3261V17.0629H82.7361V13.8479ZM83.3671 3.3479C83.0521 2.4669 82.6011 1.2349 82.3531 0.617897C82.2411 0.353897 82.4881 0.221896 82.7141 0.353896C83.5701 0.815897 84.4711 1.5429 84.7641 2.3349C85.3501 3.8539 83.8631 4.7349 83.3671 3.3479ZM76.5861 5.7699H73.5671C73.2071 7.7509 72.7561 9.7099 72.2381 11.1409C71.2701 13.8269 70.1651 15.8959 68.8361 17.0409C68.5661 17.2829 68.2961 17.0849 68.4761 16.7539C69.3091 15.2129 70.2781 13.1439 70.9991 10.4359C71.3601 9.0939 71.6971 7.5529 71.9451 5.7699H69.3321C68.9721 5.7699 68.8821 5.5489 68.4991 4.6249H72.0801C72.2381 3.3259 72.3511 1.9169 72.3731 0.397897L73.5901 0.705896C74.0181 0.815896 74.1531 0.903897 74.1311 1.3009C74.0631 2.2909 73.9281 3.4359 73.7481 4.6249H75.8431C76.2931 4.6249 76.4731 4.3829 76.8791 3.9639C77.3971 4.4269 77.7351 4.6909 77.7351 5.0209C77.7351 5.5279 77.3071 5.7699 76.5861 5.7699ZM64.9981 13.8479H56.3251C56.3021 13.9589 56.2571 14.0689 56.2121 14.1789C55.3341 16.3359 52.9231 19.5059 47.2911 20.2989C46.9531 20.3429 46.7951 19.9679 47.1111 19.8589C50.6251 18.6259 53.2841 16.6659 54.3421 14.2009L54.4781 13.8479H47.1561C46.6831 13.8479 46.6151 13.6499 46.1201 12.6599H49.7241V7.0239L51.0311 7.2659C51.4141 7.3319 51.5041 7.4869 51.5261 7.5969H55.2891C55.3111 6.4519 55.2891 5.4169 55.2891 4.7349L56.5501 4.9549C57.0011 5.0429 57.1131 5.1749 57.1131 5.3949C57.1131 5.8579 57.1361 6.6499 57.1131 7.5969H59.9521C60.3351 7.5969 60.5601 7.4429 60.8531 7.1119L62.1821 7.5299C63.2411 7.8609 62.6551 8.3229 62.6551 8.8079V12.6599H64.2771C64.6601 12.6599 64.8861 12.4619 65.3141 11.9779C65.8541 12.5059 66.2371 12.7479 66.2371 13.0999C66.2371 13.6499 65.7421 13.8479 64.9981 13.8479ZM51.5261 8.7419V12.6599H54.8151C55.0861 11.4489 55.1981 10.0619 55.2661 8.7419H51.5261ZM60.8531 8.7419H57.0911C57.0461 10.0179 56.9331 11.4269 56.6631 12.6599H60.8531V8.7419ZM64.4581 3.8979H60.2901V5.2409C60.2901 6.1879 59.4111 6.4739 58.4881 6.2979V3.8979H53.8471V5.0869C53.8471 6.0559 53.1031 6.4519 52.0441 6.2759V3.8979H47.2681C46.9081 3.8979 46.7951 3.6779 46.3671 2.7539H52.0441V0.441897L53.4191 0.705896C53.6891 0.749896 53.8471 0.881896 53.8471 1.0139V2.7539H58.4881V0.463897L59.8621 0.727897C60.1551 0.771897 60.2901 0.947896 60.2901 1.0369V2.7539H63.7141C64.1871 2.7539 64.4351 2.5559 64.8631 2.1149C65.3811 2.5779 65.6971 2.8639 65.6971 3.1719C65.6971 3.6779 65.2241 3.8979 64.4581 3.8979ZM40.8401 8.1909C40.5921 8.3449 40.3441 8.1689 40.5021 7.8829C40.7041 7.5089 40.9301 7.0899 41.1551 6.5839H26.4221C26.3091 7.1559 26.1511 7.7069 25.9941 8.1029C25.1601 10.1719 23.2001 8.8509 24.2591 7.7289C24.8671 7.0899 25.5881 6.2759 26.1291 5.0209C26.2411 4.7569 26.5791 4.8229 26.5791 5.0429V5.4829H29.8011C29.6661 5.3949 29.5081 5.2629 29.3951 5.0649C29.0351 4.4929 28.5841 3.8099 28.3371 3.4359C28.2011 3.2379 28.3591 3.0179 28.6741 3.1279C29.3731 3.3479 30.4541 3.6559 30.8601 4.3829C31.1081 4.8229 30.9271 5.2849 30.6121 5.4829H36.4241C36.9871 4.6249 37.7311 3.2379 38.0911 2.4239L39.0601 3.0619C39.6231 3.4359 39.6231 3.5459 39.4431 3.7219C39.1281 4.0299 38.1591 4.8889 37.2801 5.4829H40.8621C41.3351 5.4829 41.5161 5.4169 41.8531 5.1089L42.6421 5.8799C43.0921 6.3199 43.0921 6.4519 42.8451 6.6719C42.0561 7.3549 41.3351 7.8829 40.8401 8.1909ZM39.7811 2.1149C38.3621 2.3349 35.5461 2.6439 32.6621 2.7969C33.4051 3.1279 34.2161 3.4139 34.6891 4.1409C35.1631 4.8669 34.1261 6.1219 33.3151 4.9329C32.9771 4.4269 32.6171 3.6339 32.2571 3.0839C32.2111 2.9959 32.2111 2.8859 32.2571 2.8199C30.1391 2.9299 28.0211 2.9519 26.4441 2.7969C26.1511 2.7759 26.0611 2.3789 26.4221 2.3569C31.7161 1.9169 35.6581 1.5649 39.5111 0.507897L40.1641 1.3229C40.6371 1.9169 40.3211 2.0269 39.7811 2.1149ZM19.9251 14.8829H17.4021V19.1539C17.4021 20.1889 16.3661 20.7609 15.5771 20.0789C15.0141 19.5939 14.0451 19.1759 13.4821 18.9559C13.2341 18.8679 13.2571 18.6259 13.5271 18.6259C14.0451 18.6259 15.3971 18.6699 15.5321 18.6039C15.6221 18.5599 15.6221 18.5149 15.6221 18.4279V14.8829H6.79111C6.40811 14.8829 6.31811 14.6849 5.95811 13.7389H15.6221V12.3299L17.0641 12.6379C17.3341 12.7039 17.4021 12.7919 17.4021 12.9239V13.7389H19.2491C19.6551 13.7389 19.9031 13.5629 20.3311 13.0339C20.8711 13.5839 21.1641 13.7819 21.1641 14.1569C21.1641 14.6629 20.7141 14.8829 19.9251 14.8829ZM19.2941 2.9299H14.6091V4.1839H16.4781C16.8841 4.1839 17.1541 4.0089 17.4471 3.6559L18.8661 4.1179C19.7221 4.4049 19.1821 4.8449 19.1821 5.2409V9.2479C19.1821 10.1949 18.3031 10.4359 17.4471 10.2609V9.5779H14.6091V11.2289L16.8161 11.0969C16.5911 10.8549 16.3431 10.6349 16.1181 10.4359C15.8481 10.2159 16.0501 9.9739 16.3661 10.0619C17.7171 10.4799 18.6861 10.8109 19.2491 11.3829C20.1511 12.3079 19.2041 13.6499 18.1001 12.4839C17.8751 12.2419 17.6271 11.9549 17.3571 11.6689C14.6091 12.1759 10.6891 12.6159 8.3231 12.9019C7.8281 12.9679 7.7371 12.8359 7.0391 11.5589C8.8861 11.5149 10.9361 11.4269 12.8511 11.3389V9.5779H10.0581V9.6219C10.0581 10.4359 9.2241 10.7889 8.3231 10.6129V3.6119L9.69712 3.8769C9.94512 3.9199 10.0351 4.0519 10.0581 4.1839H12.8511V2.9299H8.05308C7.51208 2.9299 7.53509 2.7539 7.10709 1.8509H12.8511V0.243896L14.2481 0.551897C14.5181 0.617897 14.6091 0.727897 14.6091 0.837897V1.8509H18.6191C18.9791 1.8509 19.2041 1.6309 19.5651 1.2129C20.0601 1.6749 20.3981 1.9169 20.3981 2.2469C20.3981 2.7309 20.0151 2.9299 19.2941 2.9299ZM14.6091 8.5429H17.4471V7.4209H14.6091V8.5429ZM14.6091 6.3859H17.4471V5.2189H14.6091V6.3859ZM12.8511 5.2189H10.0581V6.3859H12.8511V5.2189ZM12.8511 7.4209H10.0581V8.5429H12.8511V7.4209ZM5.48508 5.0649V19.1539C5.48508 20.1449 4.6741 20.4969 3.7501 20.3209V7.9709C2.9611 9.1599 2.24012 10.0839 1.24912 10.9869C1.06912 11.1629 0.73111 10.9649 0.91111 10.7009C1.97011 9.1159 2.64611 7.8169 3.57011 5.8579C4.44811 3.9859 5.12412 2.0269 5.50712 0.485896L6.61112 1.0139C7.03912 1.2129 7.15208 1.3449 6.97208 1.7629C6.56608 2.7539 6.07008 3.8979 5.48508 5.0649ZM9.51713 15.1469C10.7111 15.5879 11.7021 16.0279 12.3331 16.7109C13.2121 17.6789 12.0181 19.3519 10.8461 17.7229C10.2161 16.8429 9.78711 16.2039 9.24711 15.4999C9.04411 15.2579 9.29213 15.0599 9.51713 15.1469ZM26.0391 10.3699C26.9621 9.4679 27.6161 8.8739 28.1341 7.7729C28.2461 7.5299 28.6071 7.6189 28.5841 7.8609C28.5171 9.1379 28.1341 10.5469 27.5931 11.2069C26.3991 12.6599 24.9351 11.4489 26.0391 10.3699ZM38.2721 7.6409C39.6461 8.2129 40.7721 8.7629 41.3801 9.4679C42.2821 10.5249 41.2001 12.0879 40.0741 10.6129C39.4211 9.7539 38.7451 8.8289 38.0011 7.9929C37.8661 7.8389 37.9331 7.5089 38.2721 7.6409ZM34.1491 9.2259C33.5861 8.4989 33.0451 7.7509 32.6171 7.2659C32.3691 6.9799 32.5941 6.8259 32.8871 6.9139C34.1491 7.3109 34.6671 7.5299 35.2081 8.0149C36.1541 8.8509 35.0271 10.3699 34.1491 9.2259ZM36.9421 9.4239L37.0771 9.0279C37.1451 8.8289 37.3481 8.8509 37.4151 9.0279C37.5281 9.3139 37.6411 9.6659 37.9331 9.9079C38.5421 10.4139 38.2721 10.9649 37.6861 11.1409C35.9511 11.6689 32.7521 11.4489 31.6261 11.3609C30.0041 11.2289 29.9361 10.7009 29.9361 8.8739V7.2659L31.3331 7.5749C31.5351 7.6189 31.6261 7.7289 31.6261 7.8609V9.2259C31.6261 9.9079 31.7161 10.0179 32.3921 10.0839C32.7971 10.1279 35.5231 10.2159 36.3571 9.9959C36.6941 9.9079 36.8301 9.7539 36.9421 9.4239ZM28.9451 14.0029C29.6661 13.1439 30.2961 12.2419 30.7921 11.3609L31.8281 11.9779C32.2571 12.2419 32.3691 12.3519 32.0541 12.7479L31.9861 12.8359H36.4021C37.0551 12.8359 37.2581 12.7699 37.6411 12.4399L38.5191 13.2099C38.9021 13.5629 38.9921 13.6729 38.6551 14.0689C37.7531 15.1259 36.7621 16.2259 35.6131 17.0849C38.0011 18.1409 40.4791 18.5149 42.5741 18.7799C42.7551 18.8019 42.8671 18.9339 42.6651 19.0879L41.5161 19.9909C41.1781 20.2549 40.9971 20.2989 40.3891 20.1889C39.6681 20.0569 36.6721 19.4839 34.1941 17.9869C31.3331 19.6159 28.5841 20.1449 25.5431 20.3869C25.1151 20.4309 25.0471 20.0339 25.4081 19.9469C28.6071 19.1099 30.7021 18.4279 32.9101 17.1069C31.9861 16.3799 31.1751 15.5219 30.4541 14.4869C30.3191 14.6409 30.1841 14.7729 30.0491 14.9049C28.6071 16.2919 26.8501 17.4369 25.2731 18.1189C25.0021 18.2299 24.6871 18.0089 25.0701 17.7009C26.5791 16.5559 27.8861 15.2579 28.9451 14.0029ZM34.1041 16.3359C35.0721 15.6099 35.9741 14.6849 36.6271 13.9149H31.1301C32.0311 14.8829 33.0221 15.6979 34.1041 16.3359ZM57.5191 14.5089C60.3801 15.6319 62.7451 16.8639 64.0971 18.0749C65.4261 19.2419 64.7061 21.1789 63.3311 19.9249C62.2051 18.8899 59.0511 16.1379 57.3161 14.9279C56.9561 14.6629 57.2031 14.3769 57.5191 14.5089ZM74.2431 7.0239L75.4151 7.4869C75.8431 7.6629 75.9331 7.7949 75.8431 8.1249C75.4601 9.4239 74.1761 13.5179 72.7111 15.8739C73.8381 15.6099 74.9411 15.3009 75.8651 14.9939C75.6401 14.2229 75.3701 13.4089 75.1441 12.8359C75.0321 12.5279 75.2571 12.3739 75.5051 12.5719C76.3611 13.2759 77.4871 14.5529 77.9151 15.8519C78.3661 17.1949 76.8561 18.5379 76.3831 16.7769L76.0901 15.7419C74.7611 16.3799 73.2971 17.0189 71.8781 17.6129C71.2701 17.8769 71.1341 17.8109 70.0081 16.4679C70.5481 16.3799 71.1341 16.2479 71.7431 16.1159C72.7561 13.8269 73.9501 9.4459 74.2431 7.0239Z" fill="#631B72"/>
</svg>
