<svg width="85" height="21" viewBox="0 0 85 21" fill="none" xmlns="http://www.w3.org/2000/svg">
<path fill-rule="evenodd" clip-rule="evenodd" d="M83.1742 5.43901H80.4712V8.52101H82.1832C82.5892 8.52101 82.7912 8.30101 83.2192 7.88301C83.6702 8.32301 84.0302 8.63101 84.0302 8.89601C84.0302 9.40201 83.5802 9.64401 82.8592 9.64401H80.4712V12.726H82.2282C82.6342 12.726 82.8362 12.506 83.2642 12.088C83.7152 12.528 84.0762 12.858 84.0762 13.1C84.0762 13.607 83.6252 13.848 82.9042 13.848H80.4712V17.063H82.9712C83.4002 17.063 83.5802 16.798 84.0302 16.358C84.5032 16.821 84.8642 17.173 84.8642 17.437C84.8642 17.987 84.4132 18.251 83.6022 18.251H76.3262V19.066C76.3262 20.079 75.4702 20.431 74.5912 20.255V8.21301C73.8702 9.46801 73.1042 10.547 72.3162 11.207C72.1132 11.361 71.7972 11.207 71.9332 10.965C72.9242 9.49001 74.0952 6.82601 74.6592 4.91101C75.0642 3.54601 75.4922 1.96101 75.6952 0.618006L76.8212 1.08001C77.3172 1.27901 77.3622 1.43301 77.2952 1.74101C77.1372 2.40101 76.8212 3.30401 76.4382 4.29501H82.5212C82.9042 4.29501 83.1072 4.07501 83.5572 3.61201C84.0302 4.09601 84.3912 4.40501 84.3912 4.66901C84.3912 5.17501 83.9402 5.43901 83.1742 5.43901ZM78.7362 5.43901H76.3262V8.52101H78.7362V5.43901ZM78.7362 9.64401H76.3262V12.726H78.7362V9.64401ZM78.7362 13.848H76.3262V17.063H78.7362V13.848ZM79.3672 3.34801C79.0522 2.46701 78.6012 1.23501 78.3532 0.618006C78.2412 0.354006 78.4882 0.222006 78.7142 0.354006C79.5702 0.816006 80.4712 1.54301 80.7642 2.33501C81.3492 3.85401 79.8632 4.73501 79.3672 3.34801ZM72.5862 5.77001H69.5672C69.2072 7.75101 68.7562 9.71001 68.2382 11.141C67.2692 13.827 66.1652 15.896 64.8362 17.041C64.5662 17.283 64.2962 17.085 64.4762 16.754C65.3092 15.213 66.2782 13.144 66.9992 10.436C67.3602 9.09401 67.6972 7.55301 67.9452 5.77001H65.3322C64.9722 5.77001 64.8812 5.54901 64.4982 4.62501H68.0802C68.2382 3.32601 68.3512 1.91701 68.3732 0.398006L69.5902 0.706006C70.0182 0.816006 70.1532 0.904006 70.1312 1.30101C70.0632 2.29101 69.9282 3.43601 69.7482 4.62501H71.8432C72.2932 4.62501 72.4732 4.38301 72.8792 3.96401C73.3972 4.42701 73.7352 4.69101 73.7352 5.02101C73.7352 5.52801 73.3072 5.77001 72.5862 5.77001ZM60.9982 13.848H52.3252C52.3022 13.959 52.2572 14.069 52.2122 14.179C51.3342 16.336 48.9232 19.506 43.2912 20.299C42.9532 20.343 42.7952 19.968 43.1112 19.859C46.6252 18.626 49.2832 16.666 50.3422 14.201L50.4782 13.848H43.1562C42.6832 13.848 42.6152 13.65 42.1202 12.66H45.7242V7.02401L47.0312 7.26601C47.4142 7.33201 47.5042 7.48701 47.5262 7.59701H51.2882C51.3112 6.45201 51.2882 5.41701 51.2882 4.73501L52.5502 4.95501C53.0012 5.04301 53.1132 5.17501 53.1132 5.39501C53.1132 5.85801 53.1362 6.65001 53.1132 7.59701H55.9522C56.3352 7.59701 56.5602 7.44301 56.8532 7.11201L58.1822 7.53001C59.2412 7.86101 58.6552 8.32301 58.6552 8.80801V12.66H60.2772C60.6602 12.66 60.8862 12.462 61.3142 11.978C61.8542 12.506 62.2372 12.748 62.2372 13.1C62.2372 13.65 61.7422 13.848 60.9982 13.848ZM47.5262 8.74201V12.66H50.8152C51.0862 11.449 51.1982 10.062 51.2662 8.74201H47.5262ZM56.8532 8.74201H53.0912C53.0462 10.018 52.9332 11.427 52.6632 12.66H56.8532V8.74201ZM60.4572 3.89801H56.2902V5.24101C56.2902 6.18801 55.4112 6.47401 54.4882 6.29801V3.89801H49.8472V5.08701C49.8472 6.05601 49.1032 6.45201 48.0442 6.27601V3.89801H43.2692C42.9082 3.89801 42.7952 3.67801 42.3672 2.75401H48.0442V0.442006L49.4192 0.706006C49.6892 0.750006 49.8472 0.882006 49.8472 1.01401V2.75401H54.4882V0.464006L55.8622 0.728006C56.1552 0.772006 56.2902 0.948006 56.2902 1.03701V2.75401H59.7142C60.1872 2.75401 60.4352 2.55601 60.8632 2.11501C61.3812 2.57801 61.6972 2.86401 61.6972 3.17201C61.6972 3.67801 61.2232 3.89801 60.4572 3.89801ZM38.3942 4.33901H26.2972C25.9362 4.33901 25.8012 4.14101 25.3952 3.15001H32.0412C31.9512 3.06201 31.8392 2.95201 31.7482 2.79701C31.2302 1.98301 30.9372 1.45501 30.4422 0.706006C30.2842 0.486006 30.4642 0.266006 30.7572 0.376006C31.7932 0.772006 32.6052 1.03701 33.1682 1.74101C33.5732 2.24701 33.4382 2.84201 33.1002 3.15001H37.6512C38.0792 3.15001 38.3272 2.90801 38.7772 2.44501C39.2952 2.93001 39.7012 3.23801 39.7012 3.54601C39.7012 4.11801 39.2052 4.33901 38.3942 4.33901ZM24.2242 4.95501V19.242C24.2242 20.145 23.3232 20.519 22.4222 20.321V7.90501C21.6562 9.00601 20.8222 9.99601 19.8992 10.789C19.7182 10.943 19.3582 10.723 19.5612 10.436C20.5742 9.02801 21.4532 7.44301 22.6022 4.88901C23.2332 3.48001 23.8192 1.96101 24.3142 0.200006L25.5312 0.816006C26.0042 1.05901 25.9362 1.23501 25.7562 1.65301C25.3732 2.55601 24.8772 3.74401 24.2242 4.95501ZM13.9202 19.088C13.9202 20.1 12.9522 20.409 12.0052 20.255V18.846H2.63424V19.066C2.63424 20.233 1.66524 20.519 0.719238 20.299V2.82001L2.22824 3.15001C2.47624 3.19401 2.63424 3.34801 2.63424 3.48001V3.50201H4.30124C4.77424 2.51201 5.26924 1.16901 5.58524 0.156006L6.98124 0.971006C7.45524 1.23501 7.45524 1.34501 7.16224 1.67501C6.86924 2.00501 6.10324 2.82001 5.40524 3.50201H10.9922C11.3972 3.50201 11.6452 3.30401 12.0052 2.95201V2.93001H12.0282C12.0732 2.95201 12.0962 2.95201 12.1402 2.97401L13.6272 3.45801C14.5512 3.76601 13.9202 4.36101 13.9202 4.84501V19.088ZM12.0052 4.71301H2.63424V8.25701H12.0052V4.71301ZM12.0052 9.46801H2.63424V12.836H12.0052V9.46801ZM12.0052 14.047H2.63424V17.613H12.0052V14.047ZM36.9072 5.72601C37.4252 6.21001 37.8082 6.49601 37.8082 6.84801C37.8082 7.39801 37.3132 7.61901 36.5022 7.61901H27.7612C27.3552 7.61901 27.2652 7.37701 26.8372 6.43001H35.7582C36.2092 6.43001 36.4122 6.18801 36.9072 5.72601ZM36.9072 8.76301C37.4252 9.24801 37.8312 9.51201 37.8312 9.88601C37.8312 10.414 37.3132 10.657 36.5022 10.657H27.9412C27.5362 10.657 27.4462 10.436 27.0172 9.46801H35.7582C36.2092 9.46801 36.4122 9.24801 36.9072 8.76301ZM29.4952 12.77H34.6322C35.0602 12.77 35.3082 12.616 35.6012 12.264L37.1102 12.726C38.0562 13.012 37.4252 13.563 37.4252 14.003V19.154C37.4252 20.013 36.4792 20.299 35.6012 20.167V18.626H29.4952V19.11C29.4952 19.968 28.5722 20.387 27.6712 20.167V12.154L29.1352 12.44C29.3832 12.484 29.4952 12.638 29.4952 12.77ZM29.4952 17.437H35.6012V13.915H29.4952V17.437ZM53.5192 14.509C56.3802 15.632 58.7452 16.864 60.0972 18.075C61.4262 19.242 60.7052 21.179 59.3312 19.925C58.2052 18.89 55.0512 16.138 53.3162 14.928C52.9562 14.663 53.2032 14.377 53.5192 14.509ZM70.2432 7.02401L71.4142 7.48701C71.8432 7.66301 71.9332 7.79501 71.8432 8.12501C71.4602 9.42401 70.1752 13.518 68.7112 15.874C69.8382 15.61 70.9412 15.301 71.8652 14.994C71.6402 14.223 71.3702 13.409 71.1442 12.836C71.0322 12.528 71.2572 12.374 71.5052 12.572C72.3612 13.276 73.4872 14.553 73.9152 15.852C74.3662 17.195 72.8562 18.538 72.3832 16.777L72.0902 15.742C70.7612 16.38 69.2972 17.019 67.8782 17.613C67.2692 17.877 67.1342 17.811 66.0082 16.468C66.5482 16.38 67.1342 16.248 67.7432 16.116C68.7562 13.827 69.9502 9.44601 70.2432 7.02401Z" fill="#631B72"/>
</svg>
