<svg width="48" height="48" viewBox="0 0 48 48" fill="none" xmlns="http://www.w3.org/2000/svg">
<path fill-rule="evenodd" clip-rule="evenodd" d="M44.4519 35.1899C42.9599 36.8959 41.0719 38.1429 38.7899 38.9309V43.8239C38.7899 44.7619 39.1189 45.6139 39.7769 46.3819H34.0159C34.6739 45.6569 35.0039 44.8039 35.0039 43.8239V27.1969C35.0039 26.2159 34.6739 25.3629 34.0159 24.6379H40.6989C44.6939 24.6379 46.6909 26.3859 46.6909 29.8819C46.6909 31.7159 45.9449 33.4849 44.4519 35.1899ZM40.6989 27.9959H38.7899V35.2859C40.0619 34.7109 41.0719 33.9589 41.8179 33.0319C42.5649 32.1039 42.9379 31.1079 42.9379 30.0419C42.9379 28.6779 42.1919 27.9959 40.6989 27.9959ZM27.4149 44.3199C26.8109 45.1619 26.1139 45.7689 25.3239 46.1419C24.5339 46.5149 23.6119 46.7019 22.5589 46.7019C20.3629 46.7019 18.6899 45.8489 17.5379 44.1429C16.3849 42.4379 15.8089 39.5609 15.8089 35.5099C15.8089 32.7389 16.0939 30.5059 16.6649 28.8109C17.2359 27.1159 17.9979 25.9439 18.9529 25.2939C19.9079 24.6439 21.1099 24.3179 22.5589 24.3179C24.7529 24.3179 26.4149 25.1609 27.5459 26.8449C28.6759 28.5289 29.2419 31.4169 29.2419 35.5099C29.2419 37.5999 29.0879 39.3789 28.7809 40.8499C28.4729 42.3209 28.0179 43.4769 27.4149 44.3199ZM22.5589 27.6759C20.5829 27.6759 19.5949 30.2879 19.5949 35.5099C19.5949 40.7329 20.5829 43.3439 22.5589 43.3439C24.4899 43.3439 25.4559 40.7329 25.4559 35.5099C25.4559 30.2879 24.4899 27.6759 22.5589 27.6759ZM8.7309 27.9959H7.6769V46.3819H3.8909V27.9959H2.8049C1.7949 27.9959 0.916898 28.3159 0.170898 28.9549V24.6379H11.3649V28.9549C10.5959 28.3159 9.7179 27.9959 8.7309 27.9959Z" fill="#592066"/>
<path d="M15.3706 13.4488C14.9879 13.8469 14.3547 13.8599 13.9566 13.4772C13.5584 13.0944 13.5465 12.4613 13.9292 12.0631L15.3706 13.4488ZM23.4595 2.14904C23.9928 1.58873 24.8755 1.59187 25.4068 2.14513L34.94 12.0631C35.3226 12.4613 35.3098 13.0945 34.9117 13.4772C34.5135 13.8596 33.8802 13.8469 33.4976 13.4488L24.4341 4.01915L15.3706 13.4488L13.9292 12.0631L23.4595 2.14904Z" fill="#592066"/>
</svg>
