<svg width="88" height="21" viewBox="0 0 88 21" fill="none" xmlns="http://www.w3.org/2000/svg">
<path fill-rule="evenodd" clip-rule="evenodd" d="M86.1739 5.43903H83.4709V8.52103H85.1829C85.5889 8.52103 85.7909 8.30103 86.2189 7.88303C86.6699 8.32303 87.0299 8.63103 87.0299 8.89603C87.0299 9.40203 86.5799 9.64403 85.8589 9.64403H83.4709V12.726H85.2279C85.6339 12.726 85.8369 12.506 86.2639 12.088C86.7149 12.528 87.0759 12.858 87.0759 13.1C87.0759 13.607 86.6249 13.848 85.9039 13.848H83.4709V17.063H85.9719C86.3999 17.063 86.5799 16.798 87.0299 16.358C87.5029 16.821 87.8639 17.173 87.8639 17.437C87.8639 17.987 87.4129 18.251 86.6019 18.251H79.3259V19.066C79.3259 20.079 78.4699 20.431 77.5909 20.255V8.21303C76.8699 9.46803 76.1039 10.547 75.3159 11.207C75.1129 11.361 74.7979 11.207 74.9329 10.965C75.9239 9.49003 77.0949 6.82603 77.6589 4.91103C78.0639 3.54603 78.4919 1.96103 78.6949 0.61803L79.8209 1.08003C80.3169 1.27903 80.3619 1.43303 80.2949 1.74103C80.1369 2.40103 79.8209 3.30403 79.4379 4.29503H85.5209C85.9039 4.29503 86.1069 4.07503 86.5569 3.61203C87.0299 4.09603 87.3909 4.40503 87.3909 4.66903C87.3909 5.17503 86.9399 5.43903 86.1739 5.43903ZM81.7359 5.43903H79.3259V8.52103H81.7359V5.43903ZM81.7359 9.64403H79.3259V12.726H81.7359V9.64403ZM81.7359 13.848H79.3259V17.063H81.7359V13.848ZM82.3669 3.34803C82.0519 2.46703 81.6009 1.23503 81.3529 0.61803C81.2409 0.35403 81.4879 0.22203 81.7139 0.35403C82.5699 0.81603 83.4709 1.54303 83.7639 2.33503C84.3499 3.85403 82.8629 4.73503 82.3669 3.34803ZM75.5859 5.77003H72.5669C72.2069 7.75103 71.7559 9.71003 71.2379 11.141C70.2689 13.827 69.1649 15.896 67.8359 17.041C67.5659 17.283 67.2959 17.085 67.4759 16.754C68.3089 15.213 69.2779 13.144 69.9989 10.436C70.3599 9.09403 70.6969 7.55303 70.9449 5.77003H68.3319C67.9719 5.77003 67.8809 5.54903 67.4989 4.62503H71.0799C71.2379 3.32603 71.3509 1.91703 71.3729 0.39803L72.5899 0.70603C73.0179 0.81603 73.1529 0.90403 73.1309 1.30103C73.0629 2.29103 72.9279 3.43603 72.7479 4.62503H74.8429C75.2929 4.62503 75.4729 4.38303 75.8789 3.96403C76.3969 4.42703 76.7349 4.69103 76.7349 5.02103C76.7349 5.52803 76.3069 5.77003 75.5859 5.77003ZM63.9979 13.848H55.3249C55.3019 13.959 55.2569 14.069 55.2119 14.179C54.3339 16.336 51.9229 19.506 46.2909 20.299C45.9529 20.343 45.7949 19.968 46.1109 19.859C49.6249 18.626 52.2829 16.666 53.3419 14.201L53.4779 13.848H46.1559C45.6829 13.848 45.6149 13.65 45.1199 12.66H48.7239V7.02403L50.0309 7.26603C50.4139 7.33203 50.5039 7.48703 50.5259 7.59703H54.2889C54.3109 6.45203 54.2889 5.41703 54.2889 4.73503L55.5499 4.95503C56.0009 5.04303 56.1129 5.17503 56.1129 5.39503C56.1129 5.85803 56.1359 6.65003 56.1129 7.59703H58.9519C59.3349 7.59703 59.5599 7.44303 59.8529 7.11203L61.1819 7.53003C62.2409 7.86103 61.6549 8.32303 61.6549 8.80803V12.66H63.2769C63.6599 12.66 63.8859 12.462 64.3139 11.978C64.8539 12.506 65.2369 12.748 65.2369 13.1C65.2369 13.65 64.7419 13.848 63.9979 13.848ZM50.5259 8.74203V12.66H53.8149C54.0859 11.449 54.1979 10.062 54.2659 8.74203H50.5259ZM59.8529 8.74203H56.0909C56.0459 10.018 55.9329 11.427 55.6629 12.66H59.8529V8.74203ZM63.4579 3.89803H59.2899V5.24103C59.2899 6.18803 58.4109 6.47403 57.4879 6.29803V3.89803H52.8469V5.08703C52.8469 6.05603 52.1029 6.45203 51.0439 6.27603V3.89803H46.2679C45.9079 3.89803 45.7949 3.67803 45.3669 2.75403H51.0439V0.44203L52.4189 0.70603C52.6889 0.75003 52.8469 0.88203 52.8469 1.01403V2.75403H57.4879V0.46403L58.8619 0.72803C59.1549 0.77203 59.2899 0.94803 59.2899 1.03703V2.75403H62.7139C63.1869 2.75403 63.4349 2.55603 63.8629 2.11503C64.3809 2.57803 64.6969 2.86403 64.6969 3.17203C64.6969 3.67803 64.2229 3.89803 63.4579 3.89803ZM41.7319 20.277C37.6089 18.472 37.3159 11.757 37.2939 8.34503H25.6239C25.2639 8.34503 25.1289 7.97103 24.8129 7.17903H36.3929C36.7529 7.17903 36.9789 7.04603 37.2939 6.69403L38.7579 7.22303C39.7499 7.57503 39.1189 8.14703 39.1189 8.47703C39.1189 12.858 39.6819 16.072 41.1459 17.459C41.2139 17.525 41.2819 17.503 41.3259 17.481C41.4389 17.415 41.7319 16.579 42.0699 15.5C42.1379 15.301 42.3849 15.368 42.3849 15.522C42.2729 17.767 42.2949 18.538 42.6109 19.198C42.9939 20.013 42.5429 20.629 41.7319 20.277ZM37.8119 4.07503C38.3079 4.51503 38.6909 4.77903 38.6909 5.10903C38.6909 5.54903 38.3079 5.85803 37.5189 5.85803H27.8769C27.5169 5.85803 27.4489 5.57103 27.0439 4.75703H36.7759C37.1359 4.75703 37.4069 4.49303 37.8119 4.07503ZM39.5239 3.39203H27.4939C26.3679 4.75703 24.7229 6.49603 22.9879 7.61903C22.7179 7.79503 22.5379 7.44303 22.6959 7.26603C24.6779 5.04303 26.3899 2.35703 27.3139 0.42003L28.3049 0.94803C28.9359 1.27903 29.0489 1.34503 28.7329 1.78503L28.3949 2.24703H38.8479C39.2309 2.24703 39.4789 1.98303 39.8849 1.56503C40.4249 2.04903 40.7859 2.29103 40.7859 2.66503C40.7859 3.15003 40.3349 3.39203 39.5239 3.39203ZM15.0279 20.255C14.3289 20.519 13.9459 20.365 13.5859 20.1C13.1349 19.77 12.5269 19.308 11.6709 18.956C11.4009 18.846 11.4229 18.604 11.7389 18.626C14.0589 18.758 14.2839 18.758 14.9829 17.943C15.3879 17.459 15.8389 16.424 16.1089 14.795H10.1169C10.0259 15.015 9.93588 15.235 9.82388 15.456C8.40388 18.097 6.06189 20.1 0.992889 20.563C0.609889 20.607 0.564893 20.233 0.902893 20.123C3.89889 19.198 6.35387 17.877 7.68387 15.588C7.81887 15.346 7.95387 15.081 8.08887 14.795H1.55588C1.10488 14.795 0.969863 14.531 0.609863 13.607H8.53989C8.69689 13.122 8.83289 12.572 8.94489 11.955L10.2069 12.396C10.6799 12.55 10.8149 12.616 10.7019 12.99C10.6349 13.188 10.5899 13.409 10.5219 13.607H15.2309C15.6359 13.607 15.9509 13.452 16.2889 13.056L17.6639 13.584C18.7449 14.003 18.0239 14.619 17.9789 14.905C17.8889 15.412 17.3929 19.33 15.0279 20.255ZM17.3259 11.493C17.3259 12.308 16.5149 12.902 15.7709 12.44C15.1849 12.088 14.4189 11.801 14.0139 11.647C13.8339 11.581 13.7889 11.339 14.1039 11.339C14.4189 11.339 15.1629 11.383 15.4109 11.317C15.5009 11.295 15.5459 11.207 15.5459 11.097V10.48H11.0399V10.811C11.0399 11.581 10.1839 12.022 9.23788 11.801V10.48H4.73187V11.978C4.73187 12.836 3.83088 13.21 2.95288 12.99V4.09603L4.39487 4.36103C4.66487 4.40503 4.73187 4.55903 4.73187 4.62503H9.48587C8.89987 4.09603 8.49486 3.63403 7.77386 3.04003C7.45786 2.79703 7.66089 2.57803 7.95389 2.64403C9.10289 2.88603 9.66587 2.99603 10.5899 3.50203L10.7469 3.59003C11.9639 3.04003 13.1129 2.46703 13.6309 2.13703H2.81787C2.43487 2.13703 2.32187 1.85103 1.91687 1.01403H14.3749C14.8249 1.01403 15.1629 0.88203 15.5459 0.53003L16.3799 1.38903C16.9649 2.00503 16.7849 2.11503 16.4699 2.26903C15.3659 2.82003 13.3379 3.54603 11.1079 4.20703C11.1299 4.36103 11.1079 4.49303 11.0399 4.62503H14.5999C14.9829 4.62503 15.2529 4.49303 15.5459 4.11803L16.9649 4.58103C17.9339 4.88903 17.3259 5.43903 17.3259 5.83603V11.493ZM9.23788 5.70303H4.73187V7.04603H9.23788V5.70303ZM9.23788 8.12503H4.73187V9.38003H9.23788V8.12503ZM15.5459 5.70303H11.0399V7.04603H15.5459V5.70303ZM15.5459 8.12503H11.0399V9.38003H15.5459V8.12503ZM26.8179 11.846C26.3229 11.009 25.9619 10.238 25.6239 9.64403C25.5119 9.44603 25.6919 9.20403 25.9619 9.33603C27.0209 9.84203 27.7199 10.172 28.1469 10.723C29.0489 11.889 27.6289 13.21 26.8179 11.846ZM28.6209 13.871H24.2949C23.8899 13.871 23.7769 13.673 23.3939 12.77H29.5889V8.56503L31.0089 8.85103C31.2339 8.89603 31.3469 9.00603 31.3469 9.13803V12.77H32.0899C32.6079 11.867 33.2389 10.414 33.7349 9.13803L34.8609 9.84203C35.2889 10.106 35.3569 10.216 35.0189 10.569C34.5009 11.119 33.5989 12.11 32.8559 12.77H35.1089C35.4919 12.77 35.6939 12.528 36.1229 12.065C36.6179 12.55 37.0009 12.814 37.0009 13.144C37.0009 13.65 36.5499 13.871 35.7169 13.871H31.3469V14.707C33.2389 15.588 35.1309 16.424 35.9199 17.173C36.7529 17.987 36.2129 19.682 34.7259 18.449C33.4639 17.393 32.1799 16.226 31.3469 15.478V19.198C31.3469 20.1 30.3549 20.497 29.5889 20.255V15.126C28.2379 16.645 25.2639 18.912 23.4169 19.484C22.9879 19.616 22.8979 19.286 23.1689 19.088C25.2189 17.569 27.3589 15.544 28.6209 13.871ZM56.5189 14.509C59.3799 15.632 61.7449 16.864 63.0969 18.075C64.4259 19.242 63.7049 21.179 62.3309 19.925C61.2049 18.89 58.0509 16.138 56.3159 14.928C55.9559 14.663 56.2029 14.377 56.5189 14.509ZM73.2429 7.02403L74.4149 7.48703C74.8429 7.66303 74.9329 7.79503 74.8429 8.12503C74.4599 9.42403 73.1749 13.518 71.7109 15.874C72.8379 15.61 73.9409 15.301 74.8649 14.994C74.6399 14.223 74.3699 13.409 74.1439 12.836C74.0319 12.528 74.2569 12.374 74.5049 12.572C75.3609 13.276 76.4869 14.553 76.9149 15.852C77.3659 17.195 75.8559 18.538 75.3829 16.777L75.0899 15.742C73.7609 16.38 72.2969 17.019 70.8779 17.613C70.2689 17.877 70.1339 17.811 69.0079 16.468C69.5479 16.38 70.1339 16.248 70.7429 16.116C71.7559 13.827 72.9499 9.44603 73.2429 7.02403Z" fill="#631B72"/>
</svg>
