<svg width="89" height="21" viewBox="0 0 89 21" fill="none" xmlns="http://www.w3.org/2000/svg">
<g clip-path="url(#clip0_1980_210)">
<path fill-rule="evenodd" clip-rule="evenodd" d="M86.6708 5.16879H83.9472V8.27033H85.6726C86.0808 8.27033 86.2853 8.04897 86.7163 7.6273C87.1699 8.07085 86.776 8.38059 86.776 8.6474C86.776 9.1566 87.0799 9.39985 86.3535 9.39985H83.9472V12.5014H85.7172C86.1263 12.5014 86.3308 12.28 86.7617 11.8592C87.2154 12.3028 87.579 12.6352 87.579 12.8785C87.579 13.3877 87.1253 13.6317 86.399 13.6317H83.9472V16.8663H86.4663C86.8981 16.8663 87.0799 16.6003 86.776 16.1576C88.0099 16.623 88.3735 16.9765 88.3735 17.2425C88.3735 17.7963 87.919 18.0623 87.1026 18.0623H79.7708V18.8821C79.7708 19.9013 78.9081 20.2557 78.0227 20.0789V7.95975C77.2963 9.2231 76.5245 10.3088 75.73 10.9729C75.5255 11.1278 75.2082 10.9729 75.3445 10.7297C76.3427 9.24498 77.5236 6.56427 78.0909 4.63685C78.4991 3.26325 78.9308 1.6683 79.1354 0.316579L80.2699 0.782021C80.769 0.981496 80.8145 1.13636 80.7463 1.44694C80.5881 2.11101 80.2699 3.02001 79.8836 4.01655H86.0126C86.399 4.01655 86.6026 3.79519 87.0571 3.32975C86.776 3.81707 87.8963 4.12765 87.8963 4.39361C87.8963 4.90282 87.4426 5.16879 86.6708 5.16879ZM82.199 5.16879H79.7708V8.27033H82.199V5.16879ZM82.199 9.39985H79.7708V12.5014H82.199V9.39985ZM82.199 13.6317H79.7708V16.8663H82.199V13.6317ZM82.8345 3.06378C82.5172 2.1775 82.0627 0.936887 81.8136 0.316579C81.6999 0.0514538 81.9499 -0.0815296 82.1763 0.0514538C83.039 0.516054 83.9472 1.24746 84.2426 2.04536C84.8326 3.57383 83.3344 4.4601 82.8345 3.06378ZM76.0027 5.50125H72.9609C72.5973 7.49515 72.1436 9.46634 71.6218 10.9064C70.6455 13.609 69.5336 15.6921 68.1945 16.8444C67.9218 17.0876 67.6491 16.8882 67.8309 16.5557C68.6709 15.0053 69.6473 12.9231 70.3736 10.1977C70.7364 8.84603 71.0773 7.29568 71.3264 5.50125H68.6937C68.3301 5.50125 68.2391 5.27989 67.8537 4.349H71.4627C71.6218 3.0419 71.7354 1.62453 71.7582 0.0952205L72.9836 0.405795C73.4146 0.516054 73.5509 0.604429 73.5282 1.00422C73.46 2.00075 73.3237 3.153 73.1427 4.349H75.2536C75.7073 4.349 75.8891 4.10492 76.2981 3.68409C76.8199 4.14953 77.16 4.4155 77.16 4.74795C77.16 5.25716 76.729 5.50125 76.0027 5.50125ZM64.3271 13.6317H55.5881C55.5653 13.742 55.5199 13.8531 55.4744 13.9642C54.589 16.1349 52.1599 19.3256 46.4854 20.1227C46.1454 20.1673 45.9863 19.7902 46.3036 19.68C49.8454 18.4393 52.5236 16.4673 53.5899 13.9861L53.7263 13.6317H46.3499C45.8727 13.6317 45.8045 13.4323 45.3054 12.4357H48.9372V6.76375L50.2536 7.00699C50.6399 7.07432 50.7308 7.22919 50.7527 7.33945H54.5436C54.5663 6.18805 54.5436 5.1469 54.5436 4.4601L55.8153 4.68146C56.269 4.76984 56.3826 4.90282 56.3826 5.12418C56.3826 5.58962 56.4053 6.38752 56.3826 7.33945H59.2426C59.6281 7.33945 59.8553 7.18458 60.1499 6.85212L61.4898 7.2738C62.5562 7.60541 61.9662 8.07085 61.9662 8.55818V12.4357H63.6007C63.9862 12.4357 64.2135 12.2354 64.6444 11.7481C65.1898 12.28 65.5753 12.5241 65.5753 12.8785C65.5753 13.4323 65.0762 13.6317 64.3271 13.6317ZM50.7527 8.49169V12.4357H54.0672C54.339 11.217 54.4527 9.82068 54.5208 8.49169H50.7527ZM60.1499 8.49169H56.3599C56.3144 9.77691 56.2008 11.1943 55.9281 12.4357H60.1499V8.49169ZM63.7825 3.61844H59.5826V4.96931C59.5826 5.92208 58.6972 6.20993 57.7671 6.03318V3.61844H53.0908V4.81445C53.0908 5.7891 52.3418 6.18805 51.2754 6.01045V3.61844H46.4627C46.0999 3.61844 45.9863 3.39624 45.5554 2.4662H51.2754V0.139829L52.6599 0.405795C52.9318 0.449562 53.0908 0.582546 53.0908 0.715529V2.4662H57.7671V0.161712L59.1517 0.427679C59.4463 0.472287 59.5826 0.649037 59.5826 0.737412V2.4662H63.0334C63.5098 2.4662 63.7598 2.26672 64.1907 1.82316C64.7126 2.2886 65.0307 2.57645 65.0307 2.88703C65.0307 3.39624 64.5543 3.61844 63.7825 3.61844ZM37.148 19.4586C34.0153 19.2583 33.8571 18.8602 33.8571 15.714V9.48906H31.1553C30.9062 12.2354 30.4971 14.1856 29.4535 15.7359C28.0008 17.8855 25.5263 19.3694 22.9162 19.9678C22.6208 20.0343 22.5072 19.6354 22.689 19.547C24.9135 18.5496 26.979 16.7998 28.0235 14.784C28.7271 13.4323 29.0217 11.7927 29.1808 9.48906H23.7327C23.279 9.48906 23.1881 9.2231 22.7117 8.27033H31.7681V0.20632L33.2889 0.516054C33.5616 0.560662 33.6753 0.693645 33.6753 0.803904V8.27033H40.167C40.5534 8.27033 40.8025 8.07085 41.2116 7.60541C41.7334 8.09274 42.1416 8.44792 42.1416 8.73577C42.1416 9.2231 41.6652 9.48906 40.848 9.48906H35.7634V16.3562C35.7634 17.5968 36.0134 17.7298 37.6925 17.7963C38.6916 17.8409 39.8489 17.819 40.598 17.5968C41.0298 17.4647 41.1661 16.9328 41.2797 16.3562L41.4607 15.3597C41.5061 15.1602 41.7788 15.1383 41.8243 15.3597C42.0507 16.4673 42.1643 17.2871 42.6643 17.7525C43.0952 18.1515 43.0498 18.6826 42.5052 18.9932C41.7107 19.4359 38.9189 19.5689 37.148 19.4586ZM35.4689 7.69463C35.2189 7.87138 34.9235 7.6719 35.0825 7.42866C35.9452 6.09883 37.2162 3.70681 38.0334 1.84589L39.2589 2.66567C39.7361 2.9754 39.7807 3.0865 39.3952 3.57383C38.828 4.26063 36.5352 6.87485 35.4689 7.69463ZM27.8189 6.4094C27.2062 5.23528 26.1617 3.37435 25.6399 2.50996C25.4808 2.24484 25.7762 2.06725 25.9572 2.1775C27.3426 3.02001 28.7498 4.14953 29.4307 5.39015C30.2926 6.9851 28.9089 8.49169 27.8189 6.4094ZM18.8443 14.4953H14.7588V18.8821C14.7588 19.9678 13.7143 20.6319 12.807 19.9459C12.148 19.4586 10.8089 18.9486 10.128 18.7053C9.90155 18.6161 9.92344 18.3729 10.1734 18.3729C10.7407 18.3729 12.6025 18.4393 12.7388 18.3729C12.8516 18.3064 12.8516 18.2618 12.8516 18.1734V14.4953H0.912553C0.526228 14.4953 0.367153 14.2293 0.00439453 13.3212H12.8516V11.5049L14.3725 11.7927C14.6906 11.8592 14.7588 11.9703 14.7588 12.147V13.3212H18.0497C18.4815 13.3212 18.7534 13.0998 19.1624 12.6352C19.6842 13.1217 20.116 13.3439 20.116 13.742C20.116 14.2739 19.6161 14.4953 18.8443 14.4953ZM15.8934 12.1917V11.35H11.9216C11.9216 12.1252 11.0134 12.4576 10.1734 12.3028V6.91861L11.558 7.1627C11.8534 7.22919 11.9216 7.38405 11.9216 7.47243H14.9633C15.3488 7.47243 15.5988 7.31756 15.8934 6.9851L17.3461 7.38405C18.2543 7.6273 17.6415 8.22572 17.6415 8.6474V11.2616C17.6415 12.1033 16.6425 12.3246 15.8934 12.1917ZM15.8934 8.5363H11.9216V10.2861H15.8934V8.5363ZM9.17519 10.021C9.4925 9.97639 9.69703 10.3088 9.37888 10.4191C7.42705 11.1505 4.61252 11.8146 2.29709 12.4357C1.66164 12.6125 1.61619 12.5241 0.662578 11.217C1.84259 11.084 3.00073 10.9292 4.11257 10.7734V8.4698H1.84259C1.50256 8.4698 1.41166 8.2476 1.0489 7.36217H7.15435C7.5634 7.36217 7.81254 7.1627 8.15341 6.74186C8.67524 7.18458 9.03884 7.38405 9.03884 7.7384C9.03884 8.22572 8.56162 8.4698 7.85799 8.4698H5.90616V10.5302L9.17519 10.021ZM18.7534 4.12765H16.4152V5.81098C16.4152 6.74186 15.3943 6.94134 14.5543 6.85212V6.12155H4.04524C3.63619 6.12155 3.54529 5.81098 3.20525 5.0358H14.5543V4.12765H1.00345C0.639853 4.12765 0.526228 3.90629 0.140745 3.0419H14.5543V2.13374H4.02167C3.63619 2.13374 3.49984 1.75667 3.20525 1.06987H13.5333C13.9416 1.06987 14.237 0.915004 14.5543 0.582545L16.1206 0.959612C16.9833 1.15909 16.4152 1.73479 16.4152 2.20023V3.0419H18.0725C18.4815 3.0419 18.7079 2.79781 19.0715 2.3997C19.5479 2.82054 19.9115 3.0419 19.9115 3.37435C19.9115 3.88356 19.4578 4.12765 18.7534 4.12765ZM5.3616 14.784C6.49617 15.2267 7.5634 15.8024 8.08524 16.6003C8.81159 17.6861 7.51795 19.2364 6.47344 17.5531C5.95161 16.7114 5.40705 15.7586 4.97528 15.0272C4.88438 14.8724 5.02073 14.651 5.3616 14.784ZM56.7908 14.2967C59.6735 15.4262 62.0571 16.6668 63.4189 17.8855C64.758 19.0597 64.0317 21.009 62.6471 19.7465C61.5126 18.7053 58.3344 15.9354 56.5863 14.7175C56.2235 14.4515 56.4735 14.1637 56.7908 14.2967ZM73.6418 6.76375L74.8218 7.22919C75.2536 7.40678 75.3445 7.53892 75.2536 7.87138C74.8673 9.17849 73.5736 13.2993 72.0982 15.6703C73.2328 15.4043 74.3454 15.0937 75.2763 14.784C75.0491 14.0088 74.7764 13.1882 74.55 12.6125C74.4363 12.3028 74.6636 12.147 74.9127 12.3465C75.7754 13.056 76.9108 14.3404 77.3418 15.6475C77.7954 16.9993 76.2745 18.3501 75.7982 16.5784L75.5027 15.5373C74.1636 16.1795 72.6882 16.8217 71.2582 17.4201C70.6455 17.6861 70.5091 17.6196 69.3746 16.2678C69.9191 16.1795 70.5091 16.0465 71.1219 15.9135C72.1436 13.609 73.3464 9.20037 73.6418 6.76375Z" fill="#631B72"/>
</g>
<defs>
<clipPath id="clip0_1980_210">
<rect width="88.375" height="20.2" fill="white"/>
</clipPath>
</defs>
</svg>
