<svg width="90" height="22" viewBox="0 0 90 22" fill="none" xmlns="http://www.w3.org/2000/svg">
<path fill-rule="evenodd" clip-rule="evenodd" d="M87.9113 6.15003H85.1953V9.25503H86.9152C87.3232 9.25503 87.5262 9.03303 87.9562 8.61203C88.4092 9.05503 88.7712 9.36603 88.7712 9.63103C88.7712 10.141 88.3182 10.385 87.5942 10.385H85.1953V13.49H86.9612C87.3682 13.49 87.5723 13.268 88.0023 12.847C88.4543 13.29 88.8162 13.623 88.8162 13.867C88.8162 14.377 88.3642 14.621 87.6392 14.621H85.1953V17.858H87.7072C88.1372 17.858 88.3182 17.592 88.7712 17.149C89.2472 17.614 89.6093 17.969 89.6093 18.235C89.6093 18.789 89.1562 19.055 88.3412 19.055H81.0303V19.876C81.0303 20.896 80.1702 21.251 79.2872 21.073V8.94403C78.5632 10.208 77.7942 11.295 77.0012 11.96C76.7982 12.115 76.4813 11.96 76.6163 11.716C77.6123 10.23 78.7892 7.54703 79.3552 5.61803C79.7632 4.24403 80.1932 2.64703 80.3962 1.29403L81.5283 1.76003C82.0263 1.96003 82.0712 2.11503 82.0032 2.42503C81.8452 3.09003 81.5282 3.10003 81.1432 4.99703H87.2552C87.6392 4.99703 87.8433 4.77503 88.2963 4.31003C88.7713 4.79803 89.1332 5.10803 89.1332 5.37403C89.1332 5.88403 88.6813 6.15003 87.9113 6.15003ZM83.4523 6.15003H81.0303V9.25503H83.4523V6.15003ZM83.4523 10.385H81.0303V13.49H83.4523V10.385ZM83.4523 14.621H81.0303V17.858H83.4523V14.621ZM84.0862 4.04403C83.7692 3.15703 83.3163 1.91503 83.0673 1.29403C82.9543 1.02803 83.2033 0.895027 83.4293 1.02803C84.2903 1.49403 85.1953 2.22603 85.4893 3.02403C86.0783 4.55403 84.5842 5.44103 84.0862 4.04403ZM77.2733 6.48303H74.2402C73.8782 8.47903 73.4252 10.452 72.9042 11.894C71.9312 14.598 70.8223 16.683 69.4863 17.836C69.2153 18.08 68.9433 17.88 69.1243 17.548C69.9623 15.996 70.9352 13.911 71.6592 11.184C72.0222 9.83103 72.3612 8.27903 72.6102 6.48303H69.9843C69.6223 6.48303 69.5322 6.26103 69.1472 5.33003H72.7462C72.9042 4.02203 73.0182 2.60203 73.0402 1.07203L74.2623 1.38303C74.6933 1.49403 74.8283 1.58203 74.8063 1.98203C74.7383 2.98003 74.6023 4.13303 74.4213 5.33003H76.5262C76.9782 5.33003 77.1603 5.08603 77.5673 4.66503C78.0883 5.13003 78.4272 5.39603 78.4272 5.72903C78.4272 6.23903 77.9973 6.48303 77.2733 6.48303ZM65.6302 14.621H56.9163C56.8933 14.732 56.8482 14.842 56.8032 14.953C55.9202 17.126 53.4982 20.319 47.8392 21.118C47.5002 21.162 47.3412 20.785 47.6592 20.674C51.1892 19.433 53.8603 17.459 54.9243 14.976L55.0602 14.621H47.7042C47.2282 14.621 47.1612 14.421 46.6622 13.423H50.2842V7.74703L51.5972 7.99103C51.9822 8.05703 52.0722 8.21203 52.0952 8.32303H55.8752C55.8982 7.17003 55.8752 6.12803 55.8752 5.44103L57.1423 5.66303C57.5953 5.75103 57.7083 5.88403 57.7083 6.10603C57.7083 6.57203 57.7313 7.37003 57.7083 8.32303H60.5602C60.9452 8.32303 61.1712 8.16803 61.4662 7.83603L62.8013 8.25703C63.8653 8.59003 63.2762 9.05503 63.2762 9.54303V13.423H64.9062C65.2912 13.423 65.5173 13.224 65.9473 12.736C66.4913 13.268 66.8752 13.512 66.8752 13.867C66.8752 14.421 66.3772 14.621 65.6302 14.621ZM52.0952 9.47603V13.423H55.4003C55.6713 12.204 55.7842 10.807 55.8522 9.47603H52.0952ZM61.4662 9.47603H57.6862C57.6402 10.762 57.5272 12.182 57.2552 13.423H61.4662V9.47603ZM65.0872 4.59803H60.9003V5.95103C60.9003 6.90403 60.0172 7.19303 59.0892 7.01503V4.59803H54.4263V5.79503C54.4263 6.77103 53.6792 7.17003 52.6152 6.99303V4.59803H47.8173C47.4553 4.59803 47.3412 4.37603 46.9122 3.44503H52.6152V1.11703L53.9962 1.38303C54.2682 1.42703 54.4263 1.56103 54.4263 1.69303V3.44503H59.0892V1.13903L60.4702 1.40503C60.7642 1.45003 60.9003 1.62703 60.9003 1.71603V3.44503H64.3403C64.8163 3.44503 65.0653 3.24603 65.4943 2.80203C66.0153 3.26803 66.3322 3.55603 66.3322 3.86603C66.3322 4.37603 65.8572 4.59803 65.0872 4.59803ZM42.7382 19.943C42.0822 18.989 41.7882 18.301 41.0632 17.281C40.9052 17.06 40.9733 16.75 41.3353 16.927C42.6033 17.592 43.1912 17.88 43.9612 18.723C44.8212 19.654 43.7122 21.339 42.7382 19.943ZM41.7653 8.50103C40.0223 7.85803 38.1212 6.92703 36.4232 5.24103C35.6082 5.92903 34.7032 6.57203 33.7072 7.12603H36.9893C37.3513 7.12603 37.5323 7.03703 37.8953 6.63803C38.3933 7.03703 38.7092 7.19303 38.7092 7.52503C38.7092 7.96803 38.3252 8.19003 37.6462 8.19003H34.0023C33.7303 8.19003 33.6622 8.01303 33.3682 7.32603C32.5082 7.79103 31.6023 8.19003 30.6293 8.56703L31.2172 8.67803C31.4442 8.72203 31.5573 8.81103 31.5573 8.94403H33.3452C33.7752 8.94403 33.9343 8.81103 34.2283 8.50103L35.5632 8.90003C36.3562 9.14403 35.8572 9.54303 35.8572 10.009V15.175C35.8572 15.796 35.0202 16.55 34.2502 15.885C33.7982 15.486 33.0513 15.197 32.5983 15.042C32.3493 14.953 32.3723 14.709 32.6663 14.709C33.2553 14.709 34.0242 14.732 34.1602 14.665C34.2502 14.621 34.2283 14.51 34.2283 14.399V13.49H31.4213C31.1953 14.51 30.6293 15.663 29.3613 16.594C29.0903 16.794 28.8633 16.528 28.9993 16.306C29.9723 14.709 29.9273 12.869 29.9053 8.83303C29.5423 8.94403 29.1582 9.07703 28.7502 9.18803C28.6602 9.21003 28.5922 9.21003 28.5242 9.16603C28.4562 12.425 27.9582 15.486 27.2112 17.149C26.5092 18.723 25.5362 20.142 24.2462 21.007C23.9522 21.206 23.7712 20.852 23.9062 20.674C25.0382 19.233 26.0572 16.927 26.5552 13.623C26.6682 12.869 26.7362 12.049 26.7812 11.139C26.3063 11.716 25.8303 12.314 25.4003 12.758C25.0833 13.113 24.8342 13.157 24.4952 12.891L23.4993 12.115C24.6983 11.45 25.8982 10.674 26.8262 9.96403C26.8942 7.90203 26.8492 5.37403 26.7582 2.31403L28.1392 2.58003C28.3882 2.64703 28.5013 2.73603 28.5463 2.86903H35.2922L35.1793 2.75803C34.5903 2.11503 34.2732 1.71603 33.9792 1.38303C33.7752 1.13903 33.9113 0.940027 34.2053 0.984027C35.3373 1.18303 35.9713 1.25003 36.4913 1.62703C36.9673 1.96003 36.9442 2.51403 36.6722 2.86903H41.9913C42.3543 2.86903 42.5802 2.64703 42.9872 2.24803C43.4402 2.66903 43.8253 2.91303 43.8253 3.26803C43.8253 3.80003 43.3502 3.97703 42.6252 3.97703H36.7852L36.8082 3.10003C37.2832 4.35403 37.4193 4.39903 37.0123 4.75403C39.0943 6.26103 41.1542 6.86003 43.9612 7.43703C44.2102 7.48103 44.1643 7.65803 44.0283 7.76903C42.8293 8.83303 42.8293 8.90003 41.7653 8.50103ZM34.2283 9.87603H31.5573V10.74H34.2283V9.87603ZM34.2283 12.536V11.672H31.5573V12.049C31.5573 12.204 31.5572 12.359 31.5342 12.536H34.2283ZM28.5463 3.97703V8.19003V8.81103L28.6143 8.76703C31.8063 7.05903 33.4813 5.92903 35.3143 3.97703H28.5463ZM25.0162 8.16803C24.6082 7.05903 24.3373 5.99503 24.1553 5.37403C24.1103 5.21903 24.2912 4.93103 24.5632 5.15303C25.3322 5.75103 25.9213 6.28303 26.2603 7.01503C26.9173 8.43403 25.4232 9.25503 25.0162 8.16803ZM19.4393 12.071C18.9413 11.783 18.3753 11.428 17.8093 10.962V14.732C17.8093 15.663 16.9942 15.907 16.1122 15.752V15.02H14.6403V19.964C14.6403 20.829 13.7802 21.406 12.9662 20.918C12.3542 20.563 10.5893 19.92 9.97827 19.787C9.77427 19.743 9.72926 19.454 10.0463 19.454C10.2273 19.454 12.6493 19.477 12.7623 19.433C12.8303 19.41 12.8752 19.344 12.8752 19.233V15.02H10.9962C10.7932 15.685 10.0912 15.862 9.34424 15.796V11.317C8.55224 11.915 7.64624 12.425 6.56024 12.869C6.26624 12.98 6.10727 12.625 6.37927 12.448C7.64627 11.583 8.64221 10.74 9.45721 9.83103C9.16321 9.92003 8.75622 9.83103 8.37122 9.38803C7.87322 8.81103 7.53326 8.25703 7.23926 7.83603C7.12626 7.68003 7.26226 7.39203 7.53326 7.48103C8.05426 7.65803 9.05027 7.92403 9.52527 8.39003C9.84227 8.70103 9.93327 9.03303 9.88727 9.32103C9.95527 9.21003 10.0463 9.12203 10.1143 9.01103C10.6343 8.32303 11.0642 7.59203 11.4492 6.83803H7.48822C7.10322 6.83803 7.01322 6.63803 6.60522 5.75103H11.9473C12.1513 5.26303 12.3322 4.73103 12.4902 4.17703H6.24323V8.47903C6.24323 12.071 5.76824 15.33 4.93024 17.171C4.20624 18.767 3.18724 20.12 1.87524 20.984C1.51224 21.228 1.33127 20.918 1.51227 20.674C2.57627 19.255 3.73124 16.927 4.20624 13.623C4.29724 12.98 4.36425 12.293 4.43225 11.561L2.96124 13.179C2.64424 13.534 2.41827 13.534 2.05627 13.29L0.947266 12.559C2.19227 11.894 3.50423 11.073 4.47723 10.363C4.56823 8.27903 4.54626 5.75103 4.45526 2.51403L5.83624 2.78003C6.08524 2.84603 6.19823 2.93503 6.24323 3.06803H12.7393C12.6493 3.00103 12.5812 2.91303 12.4902 2.82403C11.9472 2.20303 11.5853 1.71603 11.3593 1.38303C11.1773 1.13903 11.2913 0.917027 11.5853 0.984027C12.7623 1.22803 13.5323 1.40503 13.9393 1.78203C14.3693 2.18103 14.3462 2.73603 14.0522 3.06803H19.2133C19.5753 3.06803 19.8012 2.84603 20.2092 2.44703C20.6612 2.86903 21.0463 3.11203 21.0463 3.46703C21.0463 3.10003 20.5712 4.17703 19.8472 4.17703H12.7393L13.5773 4.62003C14.0523 4.86403 14.1203 5.01903 13.9163 5.46303L13.7803 5.75103H19.0322C19.4392 5.75103 19.6432 5.61803 20.0052 5.19703C20.4352 5.64003 20.7523 5.86203 20.7523 6.15003C20.7523 6.63803 20.3672 6.83803 19.6882 6.83803H15.7502C16.2482 7.59203 16.8363 8.36803 17.6743 9.07703C18.2853 8.50103 18.9642 7.68003 19.3712 7.08203L20.2772 7.83603C20.6162 8.12403 20.6842 8.30103 20.3672 8.47903C19.8922 8.74503 19.0323 9.18803 18.2623 9.52103C19.1903 10.186 20.4582 10.807 21.6572 11.25C21.9062 11.339 21.9062 11.472 21.7252 11.583C20.3902 12.337 20.3443 12.581 19.4393 12.071ZM14.7313 6.83803H13.2372C12.7392 7.74703 12.1052 8.67803 11.3132 9.54303H15.2523C15.6143 9.54303 15.8402 9.38803 16.0892 9.10003C15.5232 8.36803 15.0483 7.56903 14.7313 6.83803ZM16.1122 10.585H11.0422V11.783H16.1122V10.585ZM16.1122 12.824H11.0422V13.956H16.1122V12.824ZM2.59924 8.47903C2.14624 7.37003 1.85226 6.26103 1.67126 5.64003C1.62626 5.48503 1.78425 5.19703 2.07825 5.41903C2.84825 6.01703 3.55023 6.59403 3.91223 7.32603C4.68123 8.87803 3.09724 9.72003 2.59924 8.47903ZM9.48022 16.128L10.3632 16.727C10.7932 17.016 10.9962 17.193 10.7252 17.481C9.50222 18.789 7.48825 20.208 5.67725 20.962C5.36025 21.095 5.15722 20.807 5.42822 20.585C6.78622 19.433 8.64222 17.525 9.48022 16.128ZM16.5872 16.528C18.6472 17.304 19.9603 18.191 20.3903 18.634C21.6123 19.898 20.5263 21.295 19.4163 20.208C18.8733 19.676 17.3573 17.902 16.2703 16.816C16.1123 16.661 16.2252 16.395 16.5872 16.528ZM30.0182 16.86C30.1762 16.639 30.5162 16.705 30.4702 16.971C30.2442 18.279 29.8592 19.565 29.2032 20.231C27.8452 21.606 26.5553 20.186 27.5513 19.388C28.7283 18.457 29.1802 18.124 30.0182 16.86ZM33.6392 16.86V18.523C33.6392 19.499 33.7533 19.654 34.9523 19.743C36.1743 19.832 37.7813 19.765 38.6873 19.499C38.9813 19.41 39.1853 19.122 39.2753 18.745L39.4562 17.969C39.5022 17.814 39.7283 17.791 39.7733 17.969C39.9323 18.7 40.0682 19.144 40.3392 19.41C40.9962 20.053 40.5652 20.608 40.0222 20.763C38.7322 21.118 36.6273 21.295 34.9523 21.162C32.0783 20.94 31.9193 20.829 31.9193 18.035V16.306L33.2772 16.594C33.5942 16.661 33.6392 16.75 33.6392 16.86ZM36.3102 18.257L35.4503 16.439C35.3143 16.151 35.4732 15.973 35.7222 16.084C36.4912 16.439 37.1702 16.75 37.6002 17.304C38.4602 18.412 37.0122 19.743 36.3102 18.257ZM38.9133 9.65403V12.98C38.9133 13.601 38.1213 13.956 37.3063 13.823V9.07703L38.5742 9.34303C38.8452 9.41003 38.9133 9.49903 38.9133 9.65403ZM41.7432 8.98903C42.0822 9.05503 42.1273 9.14403 42.1273 9.29903V15.197C42.1273 15.973 41.3353 16.572 40.5883 16.084C39.7053 15.507 39.0723 15.153 38.3253 14.909C38.1213 14.842 38.1442 14.577 38.3702 14.577C38.8452 14.577 40.2712 14.621 40.3842 14.598C40.4982 14.577 40.4982 14.51 40.4982 14.421V8.72203L41.7432 8.98903ZM58.1163 15.286C60.9903 16.417 63.3672 17.659 64.7252 18.878C66.0602 20.053 65.3363 22.005 63.9553 20.741C62.8243 19.699 59.6552 16.927 57.9122 15.707C57.5502 15.441 57.7993 15.153 58.1163 15.286ZM74.9193 7.74703L76.0963 8.21203C76.5263 8.39003 76.6162 8.52303 76.5262 8.85603C76.1412 10.164 74.8512 14.288 73.3802 16.661C74.5112 16.395 75.6212 16.084 76.5482 15.774C76.3222 14.998 76.0502 14.177 75.8242 13.601C75.7112 13.29 75.9372 13.135 76.1862 13.334C77.0472 14.044 78.1782 15.33 78.6082 16.639C79.0612 17.991 77.5452 19.344 77.0692 17.57L76.7753 16.528C75.4393 17.171 73.9682 17.814 72.5422 18.412C71.9312 18.679 71.7953 18.612 70.6633 17.26C71.2073 17.171 71.7952 17.038 72.4062 16.905C73.4253 14.598 74.6253 10.186 74.9193 7.74703Z" fill="#631B72"/>
</svg>
