<svg width="73" height="73" viewBox="0 0 73 73" fill="none" xmlns="http://www.w3.org/2000/svg">
<g clip-path="url(#clip0_1972_260)">
<path fill-rule="evenodd" clip-rule="evenodd" d="M36.4999 0.0585938C56.6279 0.0585938 72.9449 16.3736 72.9449 36.4996C72.9449 56.6256 56.6279 72.9416 36.4999 72.9416C16.3719 72.9416 0.0549316 56.6256 0.0549316 36.4996C0.0549316 16.3736 16.3719 0.0585938 36.4999 0.0585938Z" fill="black" fill-opacity="0.5"/>
<path d="M29.4393 19.9608C30.0251 19.375 30.9746 19.375 31.5604 19.9608L47.0399 35.4403C47.3212 35.7216 47.4794 36.103 47.4794 36.5009C47.4794 36.8987 47.3212 37.2801 47.0399 37.5614L31.5604 53.0389C30.9747 53.6244 30.0251 53.6244 29.4393 53.0389C28.8536 52.4531 28.8535 51.5026 29.4393 50.9169L43.8573 36.4999L29.4393 22.0819C28.8536 21.4961 28.8536 20.5466 29.4393 19.9608Z" fill="white"/>
</g>
<defs>
<clipPath id="clip0_1972_260">
<rect width="73" height="73" fill="white"/>
</clipPath>
</defs>
</svg>
