<svg width="290" height="70" viewBox="0 0 290 70" fill="none" xmlns="http://www.w3.org/2000/svg">
<path fill-rule="evenodd" clip-rule="evenodd" d="M288.45 58.1192C287.706 58.1192 286.556 58.2512 284.054 58.1192C282.499 58.0532 279.252 57.9202 276.953 55.1452L266.944 43.0522C266.877 42.9202 266.809 42.8532 266.742 42.7882V46.6202C266.742 55.8722 266.742 56.1362 270.258 56.3352C269.852 57.6562 269.717 58.1192 268.838 58.1192H256.936C257.206 56.7312 257.274 56.4672 258.085 56.3352C260.249 56.0042 260.655 55.4752 260.655 48.4702V17.1482C260.655 15.8262 260.249 14.7022 258.559 14.7022H257.477C256.733 14.7022 256.462 14.1072 257.477 13.7112C260.452 12.5882 263.698 11.4642 266.403 10.6712C267.08 10.4742 267.215 10.7382 267.147 11.2672C266.742 14.3062 266.742 23.7562 266.742 30.0992V42.3911C266.809 42.3251 266.877 42.1932 267.012 42.0602L274.316 35.3202C276.953 32.9412 277.968 31.5542 277.9 30.8922C277.765 29.7702 277.156 29.5711 275.465 29.5711H274.113C274.586 28.2491 274.586 27.8532 275.465 27.8532H287.638C287.368 29.2412 287.03 29.5711 286.421 29.5711C282.972 29.5711 281.552 32.5452 272.49 40.4752C277.9 46.9512 284.527 55.1452 288.788 57.1942C289.599 57.5912 289.193 58.1192 288.45 58.1192ZM234.267 58.7132C224.461 58.7132 219.389 51.3792 219.389 42.9202C219.389 34.3292 225.814 27.1252 234.875 27.1252C243.802 27.1252 249.686 33.8012 249.686 42.9202C249.686 51.5112 243.329 58.7132 234.267 58.7132ZM233.929 29.6371C227.707 29.6371 225.881 34.9232 225.881 41.9952C225.881 48.9332 229.195 56.1362 234.673 56.1362C241.165 56.1362 243.126 51.5112 243.126 43.8452C243.126 36.7752 239.745 29.6371 233.929 29.6371ZM195.706 58.7132C185.9 58.7132 180.828 51.3792 180.828 42.9202C180.828 34.3292 187.252 27.1252 196.314 27.1252C205.241 27.1252 211.125 33.8012 211.125 42.9202C211.125 51.5112 204.768 58.7132 195.706 58.7132ZM195.368 29.6371C189.146 29.6371 187.32 34.9232 187.32 41.9952C187.32 48.9332 190.634 56.1362 196.111 56.1362C202.604 56.1362 204.565 51.5112 204.565 43.8452C204.565 36.7752 201.183 29.6371 195.368 29.6371ZM154.778 58.7132C150.179 58.7132 147.068 57.7232 143.484 58.4492C142.943 58.5812 142.47 58.4492 142.875 57.5912C144.296 54.5502 144.093 46.7522 144.093 41.2682V17.3452C144.093 15.8262 143.484 14.7022 141.996 14.7022H140.914C140.238 14.7022 140.035 14.0422 140.914 13.7112C143.89 12.5882 147.136 11.4642 149.841 10.6712C150.517 10.4742 150.652 10.8042 150.585 11.3322C150.179 14.3712 150.179 23.6902 150.179 30.0342V33.2722C151.396 30.8921 154.372 27.2592 159.782 27.2592C167.153 27.2592 172.293 33.8012 172.293 41.5322C172.293 51.3122 165.666 58.7132 154.778 58.7132ZM157.618 31.2232C153.222 31.2232 152.276 33.0082 150.179 34.8582V54.8812C152.14 55.7392 153.763 56.0042 155.995 56.0042C163.366 56.0042 165.936 50.3212 165.936 42.5892C165.936 37.1712 162.42 31.2232 157.618 31.2232ZM132.313 41.7312C124.401 42.0602 118.314 41.9952 113.648 42.1932C113.58 49.2642 117.57 54.8812 123.792 54.8812C127.782 54.8812 129.946 53.4272 132.11 51.7082C132.786 51.1802 133.26 51.6432 132.922 52.3692C131.637 54.9462 128.052 58.7802 121.763 58.7802C113.377 58.7802 107.224 53.4272 107.224 43.1842C107.224 35.3862 113.58 27.2592 120.884 27.2592C126.632 27.2592 128.729 28.9772 130.419 30.5622C132.38 32.4122 133.53 35.5192 133.868 39.4172C134.004 41.0032 133.868 41.6642 132.313 41.7312ZM121.087 29.6371C116.488 29.6371 113.58 34.1971 113.58 39.9461L127.376 38.8892C127.376 33.7342 125.145 29.6371 121.087 29.6371ZM96.1201 37.8322C94.8351 37.8322 94.0921 37.5672 93.2121 37.0392C93.2121 32.6112 91.9951 29.6371 88.0051 29.6371C81.6481 29.6371 79.6191 34.6592 79.5521 41.7312C79.4841 49.9252 84.2861 54.8142 89.6961 54.8142C93.5501 54.8142 95.9851 53.0962 97.6761 51.4442C98.2841 50.8502 98.6901 51.3792 98.4871 52.0392C97.7431 54.3522 93.6861 58.7132 87.6671 58.7132C79.4171 58.7132 73.0601 53.1632 73.0601 42.8532C73.0601 36.7082 77.2531 27.2592 87.9371 27.2592C94.7001 27.2592 98.8931 31.3552 98.8931 34.8582C98.8931 36.7082 97.6761 37.8322 96.1201 37.8322ZM61.4161 58.7132C58.7101 58.7132 55.8701 58.1192 56.0051 54.0212C54.7881 56.1362 52.0161 58.6482 47.1461 58.6482C42.0741 58.6482 38.7611 56.1362 38.7611 51.1802C38.7611 47.6122 43.3591 40.4092 56.0731 40.4092V35.1882C56.0731 31.8182 54.3151 29.7702 50.7311 29.7702C48.9051 29.7702 47.5521 30.2982 46.4031 31.9512C45.3881 33.4042 45.6581 34.5932 45.6581 36.9722C45.1171 37.5012 44.1031 37.8972 42.8181 37.8972C41.5331 37.8972 39.6401 36.9722 39.9781 34.3292C40.3841 31.0242 45.3201 27.3912 50.8661 27.3912C58.4401 27.3912 62.4301 30.6951 62.4301 35.6511C62.4301 38.4921 62.1591 41.6642 62.1591 47.2152C62.1591 55.1452 61.4161 57.1942 65.4731 56.4672C66.2171 56.3352 66.2851 57.0612 65.7441 57.4582C64.4591 58.3832 63.2411 58.7132 61.4161 58.7132ZM45.2531 50.5862C45.2531 52.7002 46.7411 54.6822 49.2431 54.8812C52.1511 55.0792 54.1791 54.2862 56.0051 52.4362C56.0051 49.3302 56.0731 45.8941 56.0731 42.5231C47.8901 42.5231 45.2531 47.0162 45.2531 50.5862ZM30.2931 20.9802C28.6021 16.4872 27.7231 14.5702 22.1781 14.5702H11.2221V33.0732H14.4691C22.9901 33.0732 23.7331 31.4871 24.6801 29.8351C25.0181 29.2411 25.7621 29.5052 25.6271 30.2312C25.2211 32.4792 25.4241 37.0391 25.6951 39.6821C25.7621 40.2771 25.1531 40.7392 24.7481 40.1452C22.6511 37.0392 19.9461 36.0472 13.9951 36.0472H11.2221V44.3742C11.2901 55.6742 11.2221 55.6742 16.8351 56.0042C16.4301 57.5912 16.0921 58.1192 15.2121 58.1192H0.4021C0.6731 56.9292 0.7401 56.2022 1.6201 56.0042C4.7301 55.2772 4.7301 55.2112 4.7301 46.4882V22.9632C4.7301 14.7022 4.5951 14.4382 2.5661 14.0422C1.6201 13.8432 1.3491 13.3142 0.9431 11.5962H19.9461C24.0041 11.5962 28.1291 11.5312 30.4281 11.2002C30.9021 11.1342 31.1721 11.3992 31.1721 11.9272L31.6461 20.7162C31.7131 21.5752 30.6991 22.0372 30.2931 20.9802Z" fill="#5B0C81"/>
</svg>
