<svg width="261" height="70" viewBox="0 0 261 70" fill="none" xmlns="http://www.w3.org/2000/svg">
<path fill-rule="evenodd" clip-rule="evenodd" d="M259.894 37.5899V56.4889C259.894 59.1989 257.527 60.2559 254.619 59.6619V55.3669H241.973V56.0279C241.973 59.1989 239.335 60.0589 236.698 59.4629V32.0389L240.823 32.8329C241.432 32.9649 241.838 33.4269 241.973 33.6259H251.508C252.861 33.6259 253.74 32.9649 254.619 31.9069L259.015 33.1629C262.126 34.0219 259.894 36.3339 259.894 37.5899ZM254.619 37.0619H241.973V51.9299H254.619V37.0619ZM248.668 25.1669C248.668 27.6109 246.166 28.7349 243.258 28.1409V24.4399H223.714V24.6389C223.714 27.6109 221.888 29.2639 218.304 28.6699V2.63293L222.632 3.55793C223.308 3.68993 223.646 3.95493 223.714 4.21893H239.809C241.364 4.21893 242.244 3.68993 243.258 2.63293L247.654 4.01993C250.697 5.01193 248.668 6.92793 248.668 7.98593V25.1669ZM243.258 7.72093H223.714V20.9369H243.258V7.72093ZM224.931 31.9069L229.124 33.0969C232.235 33.9549 230.138 36.1359 230.138 37.2599V56.2249C230.138 58.9349 227.771 59.9919 224.931 59.3979V55.4319H212.42V57.1499C212.42 60.2559 209.715 61.1159 207.078 60.5209V32.0389L211.271 32.8329C211.947 32.9649 212.353 33.2949 212.42 33.6259H221.753C223.105 33.6259 224.052 32.8979 224.931 31.9069ZM212.42 51.9299H224.931V37.0619H212.42V51.9299ZM190.011 10.2319H174.119L176.486 11.6859C177.839 12.4789 177.974 12.9419 177.162 13.7349C175.472 15.3869 173.578 17.2369 171.752 18.6909H180.814C182.167 18.6909 182.91 18.2939 183.925 17.1049L187.915 18.3599C191.161 19.4169 189.132 21.3339 189.132 22.5899V56.9529C189.132 60.1909 185.954 61.6439 183.925 60.1239C181.829 58.5379 178.582 57.3489 176.418 56.8199C175.674 56.6219 175.539 55.7629 176.689 55.7629C178.921 55.7629 182.843 56.0279 183.654 55.6309C183.925 55.4989 183.925 55.1679 183.925 54.8379V22.2589H172.834V26.7529C172.834 27.9419 172.969 28.2059 174.931 28.2729C178.65 28.3389 178.988 27.7429 179.935 26.6209C180.273 26.2239 180.611 26.1579 180.949 26.6209C181.355 27.2149 181.829 27.7429 182.37 28.2059C183.519 29.1979 183.249 30.6519 182.234 31.2459C181.287 31.8409 178.177 32.2379 175.066 32.1049C168.1 31.7739 168.033 31.7089 168.033 22.2589H160.661L162.284 23.3159C163.637 24.1749 164.043 24.6389 163.434 25.3649C162.284 26.6859 160.256 28.8669 157.28 31.2459C155.048 33.0299 152.884 34.4189 149.976 35.9379C148.962 36.4659 148.421 35.5409 149.097 34.8799C152.14 31.9069 153.493 30.5849 155.116 28.4709C156.739 26.4219 158.024 24.3739 159.106 22.2589H147.407V57.0849C147.407 59.9259 145.107 61.1159 142.199 60.5869V16.9729L146.189 17.7659C147.136 17.9629 147.339 18.2939 147.407 18.6909H158.227C157.889 18.4259 157.618 18.0949 157.348 17.6339C156.266 15.5849 155.048 13.1389 154.169 11.1569C153.831 10.4299 154.507 10.0999 155.251 10.3639C157.889 11.4209 160.594 13.0069 161.473 14.6599C162.487 16.4439 161.879 17.9629 160.864 18.6909H168.912C170.197 16.4439 171.82 12.9419 172.767 10.2319H138.75C137.668 10.2319 137.263 9.57093 135.978 6.72993H165.057C164.719 6.53093 164.449 6.20093 164.11 5.86993C162.69 4.21893 161.405 2.23493 160.526 1.17793C159.985 0.517933 160.188 -0.209067 161.27 0.0559332C163.975 0.649933 166.883 1.37693 168.033 2.30193C169.656 3.62393 169.318 5.73793 168.168 6.72993H187.712C188.929 6.72993 189.808 5.86993 191.026 4.68093C192.446 6.00193 193.798 6.92793 193.798 7.98593C193.798 9.63693 192.108 10.2319 190.011 10.2319ZM124.457 58.8689H70.2879C69.0699 58.8689 68.6649 58.1419 67.3799 55.2349H78.5379V33.7579C75.6979 35.4089 72.7899 36.7319 70.0169 37.8539C68.8679 38.3169 68.3939 37.1279 69.341 36.5329C72.7899 34.2199 75.7659 31.9069 78.6059 29.4619C82.5279 26.0919 86.3149 22.2589 89.2909 18.4919L92.4019 20.8719C93.8219 21.9289 94.0919 22.3249 92.9429 23.3159C89.8989 26.0919 85.5709 29.3959 81.1759 32.1709C80.5669 32.5689 79.9579 32.9649 79.2819 33.2949L82.7309 34.0219C83.3399 34.1539 83.813 34.4839 83.813 34.8149V34.8799H109.579C110.728 34.8799 111.405 34.3519 112.351 33.4269L116.679 34.8799C119.114 35.6729 117.626 37.5249 117.626 38.6469V55.2349H122.225C123.442 55.2349 124.186 54.5069 125.471 53.1189C127.094 54.5739 128.176 55.5639 128.176 56.4239C128.176 58.0099 126.756 58.8689 124.457 58.8689ZM89.8989 38.3169H83.813V55.2349H89.8989V38.3169ZM101.126 38.3169H95.0389V55.2349H101.126V38.3169ZM112.351 38.3169H106.265V55.2349H112.351V38.3169ZM104.304 20.1439C111.067 22.6549 118.641 25.9599 122.36 29.2639C126.35 32.8329 124.118 38.1189 119.317 34.0879C114.718 30.1889 108.294 25.0349 103.425 21.3339C102.681 20.8049 102.951 19.6159 104.304 20.1439ZM121.887 16.3779H72.452C71.37 16.3779 71.0319 15.6509 69.7469 12.8749H101.734C104.169 9.17493 106.941 3.82193 108.361 0.187933L111.81 2.56593C113.501 3.68993 113.772 4.15193 112.825 5.07693C111.405 6.53093 107.55 10.6289 104.913 12.8749H119.655C120.805 12.8749 121.684 12.0169 122.901 10.6939C124.457 12.1489 125.674 13.0739 125.674 14.0639C125.674 15.6509 124.186 16.3779 121.887 16.3779ZM88.8169 10.6939C86.9239 8.05093 84.1509 4.41593 82.5959 2.16993C81.9869 1.30993 82.5279 0.848933 83.5429 1.17793C87.3969 2.36793 91.1839 4.54893 92.6719 6.53093C95.3769 10.1649 91.5229 14.4609 88.8169 10.6939ZM52.2739 34.8149C49.2309 32.3029 43.6859 26.2899 39.3579 18.2939C36.4499 12.9419 34.5559 7.19293 33.0689 1.97093C34.8939 1.50893 36.5849 1.83893 36.9229 2.76493C38.0049 5.60593 40.0339 11.2239 43.1449 15.9809C47.7439 22.9859 54.7769 29.3959 59.7129 32.8329C60.4569 33.3609 60.4569 33.6259 59.9839 33.8229C54.3709 36.0699 53.8979 36.1359 52.2739 34.8149ZM16.7029 52.0619C24.8859 51.2689 34.8269 50.1459 40.9809 49.2199C39.1549 46.1809 37.1259 42.9429 35.1649 39.9689C34.4889 38.9779 35.5709 38.4499 36.2469 38.9779C43.7539 44.7929 48.6229 49.3519 50.7189 53.3179C53.5599 58.6699 48.8259 61.9739 46.0529 57.5469C44.9029 55.7629 43.6859 53.7139 42.4009 51.5329C33.0009 54.1109 17.5819 57.0179 10.2789 58.2089C7.84394 58.6049 7.50594 58.3409 4.52994 53.0539C6.28894 52.9869 9.26394 52.7229 12.9159 52.3929C17.9199 45.4549 25.1559 30.2549 27.3199 22.3909L31.7159 24.8359C33.0689 25.5639 33.1359 25.8929 32.5279 27.1489C29.0789 34.0879 21.9099 46.6439 16.7029 52.0619ZM17.1759 22.2589C12.3069 28.3389 5.67994 33.4269 1.48694 35.4089C0.674944 35.8059 0.0669435 34.7479 0.674944 34.1539C4.32694 30.7839 9.19594 25.6959 13.3889 19.2189C17.0409 13.6019 18.3939 10.6289 20.5579 5.40793L24.2769 7.58893C25.7649 8.44793 25.7649 8.84393 25.2239 9.90093C23.1279 13.9989 21.3689 17.0379 17.1759 22.2589ZM160.526 34.3519H168.303C169.385 34.3519 170.129 33.9549 171.076 32.8979L175.336 34.1539C177.974 34.9469 176.215 36.6649 176.215 37.7889V50.0139C176.215 52.7229 173.781 53.6479 171.076 53.1189V49.8819H160.526V50.2789C160.526 53.1189 158.092 54.2429 155.387 53.7139V32.7659L159.444 33.4939C160.256 33.6259 160.526 33.9549 160.526 34.3519ZM160.526 46.5769H171.076V37.6569H160.526V46.5769Z" fill="#5B0C81"/>
</svg>
