<svg width="375" height="70" viewBox="0 0 375 70" fill="none" xmlns="http://www.w3.org/2000/svg">
<g clip-path="url(#clip0_1964_234)">
<path fill-rule="evenodd" clip-rule="evenodd" d="M371.145 42.3163H348.693V56.3263C348.693 59.4323 345.785 60.4893 343.148 59.8943V42.3163H318.396C317.247 42.3163 316.909 41.6553 315.691 38.9453H343.148V34.8493L347.543 35.7073C348.22 35.8393 348.693 36.2363 348.693 36.6333V38.9453H368.981C370.198 38.9453 370.942 38.2853 372.159 37.0303C373.58 38.4173 374.662 39.2103 374.662 40.0693C374.662 41.6553 373.377 42.3163 371.145 42.3163ZM363.435 30.9503C364.247 30.9503 365.194 30.3553 366.343 28.9683C367.831 30.3553 368.846 31.0823 368.846 31.9413C368.846 33.5273 367.628 34.1223 365.262 34.1223H331.786C331.583 36.8313 329.014 37.9553 326.444 37.3603V15.8833C323.739 18.6583 320.56 21.1703 317.179 22.8883C316.232 23.3503 315.353 22.5573 316.232 21.8313C319.546 18.9223 322.522 15.0903 325.497 10.7953C327.932 7.22733 330.299 3.26133 331.516 0.0233335L334.559 2.07233C335.979 2.99733 336.25 3.26133 335.506 4.45033C334.965 5.31033 334.289 6.36733 333.477 7.49133H346.732C346.529 7.29233 346.258 7.09533 346.055 6.76433C344.297 4.38533 342.81 2.20433 341.795 1.08033C341.186 0.419334 341.998 -0.108667 342.742 0.0903335C346.258 1.08033 348.625 2.13733 349.64 3.19633C351.128 4.78133 350.789 6.56533 349.707 7.49133H362.759C363.638 7.49133 364.45 6.89633 365.6 5.57433C367.087 7.02833 368.102 7.68933 368.102 8.54833C368.102 10.1343 366.952 10.7283 364.585 10.7283H349.64V15.5533H360.595C361.339 15.5533 362.286 15.0233 363.368 13.6363C364.856 15.0233 365.803 15.8833 365.803 16.6103C365.803 18.2623 364.585 18.7253 362.354 18.7253H349.64V23.2183H360.866C361.61 23.2183 362.556 22.8213 363.706 21.3683C365.262 22.8213 366.141 23.4823 366.141 24.2763C366.141 25.7953 364.856 26.4563 362.624 26.4563H349.64V30.9503H363.435ZM344.23 10.7283H331.786V15.5533H344.23V10.7283ZM344.23 18.7253H331.786V23.2183H344.23V18.7253ZM344.23 26.4563H331.786V30.9503H344.23V26.4563ZM338.82 45.6213C340.51 46.8753 340.375 47.2723 339.496 47.9993C335.303 51.3033 325.7 57.4483 316.097 59.3653C314.542 59.6963 314.88 58.3753 315.421 58.1103C322.86 54.6083 332.057 48.3293 336.114 43.5723L338.82 45.6213ZM291.11 36.4353C292.395 36.4353 293.274 35.8393 294.424 34.5183C295.912 35.9063 296.994 36.5673 296.994 37.6913C296.994 39.2103 295.641 39.8713 293.41 39.8713H287.323V47.2723C287.323 50.1143 284.618 50.8413 281.913 50.3123V47.6683H269.876V56.5233C269.876 59.8283 266.832 61.7443 264.263 59.4323C262.437 57.8453 259.461 56.6563 257.229 55.9953C256.486 55.7973 256.553 55.0043 257.365 55.0043C258.988 55.0043 263.586 55.2693 263.992 55.0703C264.33 54.8723 264.33 54.7403 264.33 54.4763V47.6683H246.206C244.786 47.6683 244.583 46.4793 243.569 44.1663H264.33V39.8713H239.511C238.226 39.8713 237.888 39.2103 236.739 36.4353H264.33V32.2053H247.018C245.801 32.2053 245.53 31.0153 244.38 28.7693H264.33V23.9453H253.578C253.239 26.2583 250.67 26.9193 248.235 26.5223V11.4553L252.496 12.2483C253.239 12.3803 253.578 12.7113 253.645 13.0413H264.33V9.01033H240.864C239.714 9.01033 239.444 8.28433 238.226 5.64033H264.33V0.0233335L268.794 0.816333C269.673 0.948333 269.876 1.34433 269.876 1.87333V5.64033H289.623C290.907 5.64033 291.651 5.04633 292.869 3.65833C294.492 5.11133 295.574 5.77233 295.574 6.89633C295.574 8.48133 294.018 9.01033 291.854 9.01033H269.876V13.0413H277.382C278.599 13.0413 279.411 12.6453 280.425 11.5883L284.754 12.7773C287.797 13.6363 285.835 15.2893 285.835 16.6103V22.4253C285.835 25.0023 283.266 26.0593 280.425 25.5973V23.9453H269.876V28.7693H278.87C280.155 28.7693 280.899 28.3073 281.913 27.1173L286.241 28.3073C289.352 29.1653 287.323 30.9503 287.323 32.4043V36.4353H291.11ZM264.33 16.3463H253.645V20.6413H264.33V16.3463ZM280.425 20.6413V16.3463H269.876V20.6413H280.425ZM281.913 32.2053H269.876V36.4353H281.913V32.2053ZM281.913 39.8713H269.876V44.1663H281.913V39.8713ZM216.012 58.3753C213.713 59.4973 213.307 59.6963 210.602 57.5153C207.694 55.2023 204.178 51.8983 201.202 47.6033C196.604 53.0883 189.3 58.1103 182.943 59.6963C182.131 59.8943 181.388 59.0353 182.334 58.4403C186.595 55.8633 194.034 50.9733 198.7 43.5053C198.429 43.0433 198.227 42.5153 197.956 41.9863C195.454 36.5673 193.56 30.3553 192.478 23.4163C190.991 25.7953 189.3 27.9763 187.609 29.4303C186.865 30.0903 185.986 29.4303 186.527 28.6373C188.962 24.6063 191.058 18.6583 192.411 14.2303C193.763 9.40733 195.116 4.64933 195.657 0.0903335L199.647 1.60933C200.796 2.07233 200.796 2.60033 200.661 3.32833C200.255 5.24333 198.97 9.47333 197.212 14.0983H212.225C213.443 14.0983 213.984 13.5703 215.404 12.1163C216.959 13.6363 218.041 14.4953 218.041 15.3543C218.041 17.0073 216.689 17.5353 214.457 17.5353H211.008C210.264 27.0513 208.371 36.4353 204.11 43.5723C207.762 48.6603 212.834 52.7573 218.379 56.1273C218.92 56.4583 219.056 56.8543 218.582 57.1193L216.012 58.3753ZM205.598 17.5353H195.792L195.048 18.9223C196.266 26.4563 198.227 32.7353 201.202 38.7483C203.569 32.9993 204.989 25.5973 205.598 17.5353ZM185.58 18.3283H176.518V29.8263H176.992C177.939 29.8263 178.615 29.3643 179.562 28.3073L184.025 29.7613C186.46 30.5543 184.837 32.1393 184.837 33.4613V51.6993C184.837 54.2773 182.402 55.5983 179.562 54.9383V50.9073H168.133V54.4093C168.133 57.5813 165.225 58.3083 162.79 57.9123V27.9763L167.051 28.9013C167.795 29.0333 168.133 29.4303 168.133 29.7613V29.8263H171.176V18.3283H160.491C159.341 18.3283 159.003 17.6013 157.718 14.8913H171.176V0.486333L175.369 1.34433C176.113 1.47733 176.518 1.74133 176.518 2.13733V14.8913H183.687C184.701 14.8913 185.378 14.3633 186.662 13.0413C188.083 14.4293 189.097 15.3543 189.097 16.2143C189.097 17.6013 187.812 18.3283 185.58 18.3283ZM168.133 33.1963V47.4713H179.562V33.1963H168.133ZM134.896 50.3123C136.18 50.3123 136.721 49.5203 138.074 48.1973C139.494 49.5853 140.576 50.6423 140.576 51.4353C140.576 53.0883 139.224 53.8803 136.789 53.8803H114.946V56.3263C114.946 59.3653 112.376 60.4223 109.739 59.8943V23.7473C107.575 27.5133 105.275 30.7513 102.908 32.7353C102.3 33.1963 101.353 32.7353 101.759 32.0073C104.734 27.5803 108.251 19.5843 109.941 13.8343C111.159 9.73733 112.444 4.97933 113.052 0.948333L116.434 2.33633C117.921 2.93133 118.057 3.39333 117.854 4.31833C117.38 6.30033 116.434 9.01033 115.284 11.9843H133.543C134.693 11.9843 135.301 11.3233 136.654 9.93533C138.074 11.3903 139.156 12.3153 139.156 13.1083C139.156 14.6273 137.804 15.4213 135.504 15.4213H127.389V24.6723H132.529C133.746 24.6723 134.355 24.0123 135.64 22.7563C136.992 24.0773 138.074 25.0023 138.074 25.7953C138.074 27.3153 136.721 28.0433 134.558 28.0433H127.389V37.2943H132.664C133.881 37.2943 134.49 36.6333 135.775 35.3783C137.127 36.6993 138.209 37.6913 138.209 38.4173C138.209 39.9373 136.857 40.6633 134.693 40.6633H127.389V50.3123H134.896ZM122.182 15.4213H114.946V24.6723H122.182V15.4213ZM122.182 28.0433H114.946V37.2943H122.182V28.0433ZM122.182 40.6633H114.946V50.3123H122.182V40.6633ZM124.075 9.14233C123.129 6.49933 121.776 2.79933 121.032 0.948333C120.694 0.155333 121.438 -0.240667 122.114 0.155333C124.684 1.54333 127.389 3.72433 128.268 6.10333C130.027 10.6623 125.563 13.3053 124.075 9.14233ZM103.72 16.4113H94.6579C93.5759 22.3593 92.2229 28.2403 90.6679 32.5363C87.7599 40.5983 84.4459 46.8103 80.4559 50.2463C79.6449 50.9733 78.8329 50.3783 79.3739 49.3873C81.8769 44.7613 84.7839 38.5493 86.9489 30.4213C88.0299 26.3903 89.0449 21.7643 89.7889 16.4113H81.9439C80.8619 16.4113 80.5919 15.7513 79.4419 12.9763H90.1949C90.6679 9.07733 91.0059 4.84733 91.0739 0.287334L94.7259 1.21233C96.0099 1.54333 96.4159 1.80733 96.3489 2.99733C96.1459 5.97133 95.7399 9.40733 95.1989 12.9763H101.488C102.841 12.9763 103.382 12.2483 104.599 10.9933C106.154 12.3803 107.169 13.1733 107.169 14.1653C107.169 15.6853 105.884 16.4113 103.72 16.4113ZM58.0399 40.6633H32.0029C31.9359 40.9943 31.7999 41.3253 31.6649 41.6553C29.0279 48.1313 21.7919 57.6473 4.8849 60.0263C3.8709 60.1583 3.3969 59.0353 4.3439 58.7043C14.8939 55.0043 22.8739 49.1223 26.0519 41.7223L26.4579 40.6633H4.4789C3.0589 40.6633 2.8559 40.0693 1.3689 37.0953H12.1889V20.1783L16.1109 20.9063C17.2609 21.1033 17.5309 21.5663 17.5989 21.8963H28.8919C28.9599 18.4603 28.8919 15.3543 28.8919 13.3053L32.6799 13.9663C34.0319 14.2303 34.3699 14.6273 34.3699 15.2893C34.3699 16.6763 34.4379 19.0543 34.3699 21.8963H42.8909C44.0409 21.8963 44.7169 21.4343 45.5959 20.4433L49.5859 21.6993C52.7649 22.6893 51.0059 24.0773 51.0059 25.5313V37.0953H55.8749C57.0249 37.0953 57.7009 36.5003 58.9859 35.0473C60.6089 36.6333 61.7589 37.3603 61.7589 38.4173C61.7589 40.0693 60.2709 40.6633 58.0399 40.6633ZM17.5989 25.3333V37.0953H27.4719C28.2839 33.4613 28.6219 29.2983 28.8249 25.3333H17.5989ZM45.5959 25.3333H34.3019C34.1669 29.1653 33.8289 33.3953 33.0179 37.0953H45.5959V25.3333ZM56.4159 10.7953H43.9049V14.8263C43.9049 17.6673 41.2679 18.5263 38.4949 17.9973V10.7953H24.5639V14.3633C24.5639 17.2713 22.3329 18.4603 19.1539 17.9323V10.7953H4.8169C3.7349 10.7953 3.3969 10.1343 2.1119 7.35933H19.1539V0.419333L23.2799 1.21233C24.0909 1.34433 24.5639 1.74133 24.5639 2.13733V7.35933H38.4949V0.486333L42.6209 1.27933C43.4999 1.41133 43.9049 1.94033 43.9049 2.20433V7.35933H54.1849C55.6049 7.35933 56.3489 6.76433 57.6339 5.44233C59.1889 6.83033 60.1359 7.68933 60.1359 8.61433C60.1359 10.1343 58.7159 10.7953 56.4159 10.7953ZM35.5869 42.6473C44.1759 46.0173 51.2769 49.7173 55.3339 53.3523C59.3239 56.8543 57.1599 62.6703 53.0349 58.9033C49.6539 55.7973 40.1859 47.5363 34.9789 43.9023C33.8969 43.1093 34.6409 42.2503 35.5869 42.6473ZM96.6869 20.1783L100.203 21.5663C101.488 22.0953 101.759 22.4913 101.488 23.4823C100.339 27.3813 96.4839 39.6733 92.0879 46.7433C95.4689 45.9503 98.7829 45.0253 101.556 44.1003C100.879 41.7873 100.068 39.3423 99.3919 37.6243C99.0539 36.6993 99.7299 36.2363 100.474 36.8313C103.044 38.9453 106.425 42.7793 107.71 46.6783C109.062 50.7093 104.531 54.7403 103.111 49.4533L102.232 46.3473C98.2419 48.2643 93.8459 50.1803 89.5859 51.9643C87.7599 52.7573 87.3539 52.5593 83.9729 48.5283C85.5959 48.2643 87.3539 47.8673 89.1799 47.4713C92.2229 40.5983 95.8079 27.4483 96.6869 20.1783ZM352.751 44.5623C360.731 47.2723 367.155 50.1143 369.725 52.4923C374.053 56.4583 371.077 60.6873 366.682 57.0523C362.759 53.7483 358.025 50.1143 352.007 45.6863C351.128 45.0253 351.466 44.1003 352.751 44.5623Z" fill="#5B0C81"/>
</g>
<defs>
<clipPath id="clip0_1964_234">
<rect width="374" height="70" fill="white" transform="translate(0.5)"/>
</clipPath>
</defs>
</svg>
